<?xml version="1.0" standalone="no"?>
<!DOCTYPE svg PUBLIC "-//W3C//DTD SVG 1.1//EN" "http://www.w3.org/Graphics/SVG/1.1/DTD/svg11.dtd" >
<svg xmlns="http://www.w3.org/2000/svg">
<metadata></metadata>
<defs>
<font id="jazztextregular" horiz-adv-x="499" >
<font-face units-per-em="2048" ascent="1638" descent="-410" />
<missing-glyph horiz-adv-x="500" />
<glyph horiz-adv-x="2048" />
<glyph horiz-adv-x="2048" />
<glyph unicode="&#xd;" />
<glyph unicode=" " />
<glyph unicode="!" horiz-adv-x="454" d="M123 1305q0 135 14 219q43 27 86 26q43 0 76 -28q-4 -219 51 -813q4 -45 4 -84q0 -123 -41 -140q-29 -27 -61 -26q-39 0 -76 33q-18 201 -49 665q-4 61 -4 148zM178 215q6 43 39 74q45 10 88 10q39 0 68 -10q10 -16 10 -72q0 -57 -10 -139q4 -37 -56 -45q-66 -8 -120 0 q-33 80 -19 182z" />
<glyph unicode="&#x22;" horiz-adv-x="528" d="M78 1356v78q0 90 24 135q51 0 105 -33q35 -20 41 -63q0 -180 4 -209v-27q0 -92 -23 -143q-43 18 -96 43q-51 35 -51 84v59q0 47 -4 76zM293 1329v80q0 74 8 109q4 18 33 28q10 -6 26 -10q47 -14 62 -25q35 -18 41 -61q0 8 2 -29v-82v-125q0 -102 -21 -147 q-147 68 -147 129v61q0 47 -4 72z" />
<glyph unicode="#" horiz-adv-x="751" d="M63 541q0 53 11 129q12 27 75.5 82t65.5 67q12 49 0 191q-16 182 -16 215q0 59 16 112q49 166 74 166q37 0 48 -299t7 -299q12 6 72 39q2 4 2 29q0 96 -13.5 290.5t-13.5 292.5q0 90 6 158q39 137 105 187q18 0 18 -142q0 -33 -2 -110v-109q4 -502 23 -512q63 45 151 70 q25 -58 25 -70q0 -123 -25 -170q-12 -25 -160 -123v-65q16 4 78 30q55 27 64 27q29 0 28 -113q0 -100 -10 -112q-2 -33 -110 -105q-8 -16 -9 -61q0 -37 7.5 -113t7.5 -112q0 -31 -6 -39q-8 -16 -35 -34t-45 -18q-8 0 -10 7q-18 141 -48 299q-18 -10 -47 -41q-2 -4 -2 -25 q0 -41 5.5 -122t5.5 -122q0 -90 -17 -108q-12 -8 -33 -8q-20 0 -47 8q-14 145 -41 305q-4 0 -51 -26.5t-63 -26.5q-8 0 -11 6q-27 49 -26 104q23 70 119 179v79q-25 -20 -76 -51q-61 -37 -76 -28q-20 18 -21 92zM356 551l70 51v90l-70 -51v-90z" />
<glyph unicode="$" horiz-adv-x="1093" d="M66 909q0 313 288 512q-4 29 -8 107q-4 127 72 256q55 0 55 -117v-176q12 6 35 12q-2 201 12 305q25 170 96 285q29 -14 29 -82q0 -33 -10 -168q-12 -164 -17 -303h7q33 0 69.5 -60.5t36.5 -97.5q0 -29 -24 -174q-55 0 -91 -8q0 -184 2 -268q424 -27 408 -416 q-8 -221 -65 -323q-78 -139 -273 -160q20 -106 55 -223q25 -82 25 -121q0 -59 -53 -193q-76 12 -133 531h-56q12 -92 58 -258q0 -35 -24.5 -84.5t-53.5 -73.5q-45 33 -68 137q-16 76 -30 279h-148q-2 10 19 192l18 187q25 25 86 47q0 59 -1 98t-1 18q-47 2 -105 -4 q-121 27 -155 68q-55 68 -55 276zM297 961q-4 -27 72 -31q0 49 -4 147q-59 -59 -68 -116zM473 934h45q-6 123 -6 235q-14 -4 -39 -16v-219zM481 565q0 -29 4 -90q27 -2 39 -26q19 -40 25 -46l-12 154q-16 4 -56 8zM635 537q4 -55 10 -160q142 4 156 45q10 63 -166 115z" />
<glyph unicode="%" horiz-adv-x="1470" d="M102 823q0 145 62 293q78 184 203 184q117 0 198 -120q68 -101 68 -197q0 -164 -144 -299q-127 -119 -233 -119q-76 0 -119 97q-35 76 -35 161zM233 938q0 -137 86 -137q33 0 96.5 34.5t67.5 61.5q0 45 -60.5 103.5t-103.5 58.5q-33 0 -59.5 -43t-26.5 -78zM475 -6 q0 20 4 39q45 207 266 919q258 827 322 844q20 -2 20 -72q0 -74 -98 -342q-129 -354 -201 -604q-31 -100 -61 -200q-37 -119 -45 -203q2 -41 14 -150q10 -92 11 -137q0 -170 -125 -231q-12 -4 -25 -4q-41 0 -63 53q-18 41 -19 88zM829 467q0 145 62 293q78 184 203 184 q117 0 198 -121q68 -100 68 -194q0 -166 -143 -299q-127 -119 -236 -119q-76 0 -119 96q-33 74 -33 160zM961 582q0 -139 86 -140q33 0 96 36t67 63q0 45 -60 103t-103 58q-33 0 -59.5 -43t-26.5 -77z" />
<glyph unicode="&#x26;" horiz-adv-x="897" d="M82 395q0 252 84 375q29 41 29 37q2 8 -19.5 98t-21.5 125q0 256 176 397l78 62q-4 66 -33 340q-18 180 -19 233q0 53 54 201q68 25 112 -369q33 -287 33 -446q0 51 44 -59.5t44 -143.5q0 -39 -22.5 -112.5t-42.5 -102.5q-29 -20 -52 -20q-33 0 -65.5 90t-52.5 94 q-35 -23 -71 -76t-28 -88q37 -135 115 -135q27 0 89 23.5t87 19.5q29 0 29 -96q0 -106 -29 -162q-74 -100 -190 -98q-106 2 -129 -7q-55 -18 -56 -100q0 -131 131 -131q82 0 228 43q154 43 213 88q8 6 16 6q41 0 41 -100q0 -154 -162 -246q-57 -33 -57 -41q37 -207 37 -416 q0 -49 -4 -90q-29 -20 -58 -20q-18 0 -37 10l-18 10q-29 31 -31 146q-4 195 -20 313q-74 -29 -150 -29q-272 0 -272 377z" />
<glyph unicode="'" horiz-adv-x="331" d="M84 1329v80q0 -14 2 37v43q0 45 37 57q8 -6 27 -10q51 -14 63 -25q39 -23 39 -61q0 -18 2 -88t2 -121v-27q0 -98 -23 -147q-84 41 -94 49q-53 35 -53 80v61v27q-2 23 -2 45z" />
<glyph unicode="(" horiz-adv-x="671" d="M-4 285q0 188 121 596q162 545 432 1001q10 10 20 10q33 0 33 -90q0 -92 -100 -321q-158 -360 -189 -447q-100 -285 -100 -522q0 -319 177 -491.5t497 -172.5q172 0 172 -110q-1 -37 -17 -84q-45 -127 -268 -127q-281 0 -498 160q-281 207 -280 598z" />
<glyph unicode=")" horiz-adv-x="733" d="M-102 1636q0 29 14 82q31 78 102 107q51 20 154 20q248 0 383 -241q113 -199 113 -465q0 -188 -121 -596q-162 -543 -432 -1004q-10 -8 -21 -8q-35 0 -35 90q0 92 101 322q158 360 188 446q100 285 100 522q0 213 -75 387q-100 225 -285.5 225.5t-185.5 112.5z" />
<glyph unicode="*" horiz-adv-x="770" d="M84 1026q0 55 29 104q8 14 135 105q-106 82 -107 137q16 49 56 111q18 4 122 -125q6 41 21 123q14 76 63 84q12 2 13 -29q0 -23 -5 -69t-5 -68q0 -25 4 -41q53 45 140 83t109 60q10 2 21 2q33 0 33 -30q0 -13 -4 -27q-29 -72 -103 -121q-111 -74 -121 -82q68 -41 154 -74 q43 -16 43 -39q0 -18 -28.5 -70t-45.5 -52q-12 0 -94 35.5t-92 35.5q-4 -10 -4 -20q0 -12 13 -27.5t13 -23.5q0 -33 -59 -105q-6 -4 -14 -4t-21 4q-10 139 -14 166q-8 53 -25 78q-203 -137 -215 -137t-12 16z" />
<glyph unicode="+" horiz-adv-x="1220" d="M84 637q0 158 72 188q4 2 16 2q25 0 75 -4t77 -4q102 0 174 27q0 70 -15 244q-10 117 29 170q20 23 109 32q20 0 24 -43q6 -49 4 -133l-4 -239q76 10 186 41q123 33 177 63q10 6 20 6q31 0 65.5 -51t34.5 -80q0 -119 -210 -227q-172 -88 -263 -88q6 -111 7 -195 q0 -133 -17 -190q-47 -47 -80 -47q-18 0 -82 98q-8 35 -4 143q4 139 4 180q-43 -4 -98 -4q-301 0 -301 111z" />
<glyph unicode="," horiz-adv-x="530" d="M76 68l280 217q94 0 125 -43q25 -33 29 -131q2 -39 -6 -58q-2 -10 -45 -96l-283 -219q16 39 39 94q4 18 12 64q0 100 -33.5 135t-117.5 37z" />
<glyph unicode="-" horiz-adv-x="872" d="M70 551q0 27 35.5 95.5t58.5 82.5q6 8 51 4q72 -4 152 0q84 6 362 27q16 2 29 2q45 0 45 -35q0 -27 -36 -108.5t-54 -88.5l-299 -30q-41 -4 -148 -6q-121 -2 -149 6q-47 12 -47 51z" />
<glyph unicode="." horiz-adv-x="483" d="M115 66q0 29 33.5 96t56.5 88q6 4 76 6q72 2 79 0q31 -8 27 -39q0 -29 -27 -92q-33 -76 -67 -90q-41 -6 -135 -6q-43 0 -43 37z" />
<glyph unicode="/" horiz-adv-x="808" d="M-57 57q0 33 14 101q35 160 362 796q350 680 449 680q98 0 98 -73q0 -11 -2 -21q-221 -319 -409 -704q-92 -193 -275 -578q-119 -248 -174 -274q-63 0 -63 73z" />
<glyph unicode="0" horiz-adv-x="821" d="M39 788q0 233 121 549q129 336 254 336q143 0 143 -139q0 -33 -8 -74l-8 -41l77 -114q84 -123 101 -177q76 -237 76 -604q0 -180 -99 -346q-115 -193 -282 -192q-190 0 -297 325q-78 242 -78 477zM160 760q0 -201 114 -346q90 -113 152 -113q90 0 149 115q52 94 52 194 q0 115 -47 267q-57 180 -127 190v274q-86 18 -193 -219q-100 -223 -100 -362z" />
<glyph unicode="1" horiz-adv-x="667" d="M18 -20l21 264q12 8 114.5 16t118.5 19q8 8 9 143q0 530 -39 637q-37 -86 -52 -160q-8 -47 -26 -139q-14 -12 -27 -12q-45 0 -45 126q14 125 92 414q72 266 72 318q23 23 72 22q55 0 71 -22l27 -1309q45 0 106 16l148 39v-235q-356 -152 -662 -137z" />
<glyph unicode="2" horiz-adv-x="892" d="M39 1022q0 92 16 166q49 225 121 334q104 160 289 159q96 0 123 -102q16 -57 10 -193q-8 -217 -68 -432q-33 -117 -114 -331q-88 -221 -119 -330q49 -16 57 -17q76 0 215 103q170 125 238 151q6 -42 43 -120q0 -170 -209 -314q-190 -133 -369 -133q-133 0 -133 205 q0 31 6 108q16 213 113 461q139 362 166 455l27 98q0 45 -60 45q-180 0 -180 -327v-138q0 -41 -40 -75.5t-81 -34.5q-16 0 -35 6q0 41 -8 127t-8 129z" />
<glyph unicode="3" horiz-adv-x="759" d="M27 1100q0 84 26 205q35 154 107 254q92 127 229 127q82 0 121 -82q29 -61 29 -154q0 -147 -41 -266q-25 -72 -109 -226q49 10 92 11q250 -1 250 -351q0 -172 -113 -385q-129 -246 -282 -245q-160 0 -160 215q0 123 115 211q57 -33 57 -88q0 -14 -4 -29q86 23 176 158 q78 117 78 163q0 35 -63 54q-43 12 -89 12q-82 0 -159 -51q-31 -20 -123 -107q-70 0 -70 119q0 29 2 83t2 83q297 436 297 537q0 35 -35 30q-76 -10 -127 -84q-43 -61 -67 -153q-12 -51 -37 -152q-23 -23 -47 -22q-23 0 -43 22q-12 53 -12 111z" />
<glyph unicode="4" horiz-adv-x="903" d="M49 446q-16 143 101 455q72 190 198 438q178 342 266 359q25 -51 25 -111q0 -39 -2 -117.5t-2 -117.5q0 -231 29 -566q57 14 190 41q25 -40 25 -290q0 -29 -148 -74q0 -51 22.5 -176t22.5 -191q0 -53 -8 -94h-104q-4 14 -31 209q-18 133 -55 213q-240 -90 -379 -90 q-74 0 -105 20q-37 25 -45 92zM233 682q136 0 316 57q-45 283 -45 494q-57 -74 -152.5 -268.5t-118.5 -282.5z" />
<glyph unicode="5" horiz-adv-x="681" d="M51 1221q0 186 59.5 280t295.5 180v-192q0 -82 -56 -105q-82 -33 -102 -61q-55 -76 -55 -289v-82q29 23 59.5 44.5t69.5 21.5q143 0 243 -125q94 -117 94 -264q0 -236 -75 -420q-100 -252 -301 -252q-88 0 -129 43q-20 23 -56 111v231q20 10 52 33q39 -76 40 -82 q33 -53 66 -53q109 0 198 102t89 213q0 63 -67.5 131t-131.5 68q-41 0 -111 -52q-53 -39 -83 -73q-61 0 -66 49l-31 469q-2 39 -2 74z" />
<glyph unicode="6" horiz-adv-x="847" d="M39 473q0 231 86 653q115 559 281 560q98 0 98 -89q0 -170 -49 -247q-6 -10 -44 -9.5t-46 -9.5q-92 -180 -142 -586q-8 -68 -8 -124q0 -121 35 -166q18 215 133 465q127 279 256 278q123 0 166 -156q22 -86 22 -254q0 -348 -161 -585q-143 -211 -314 -211 q-154 0 -241 174q-72 139 -72 307zM383 379q0 -8 2 -14q115 -8 219 161q84 138 84 193q0 102 -41 129q-59 0 -168 -217q-96 -190 -96 -252z" />
<glyph unicode="7" horiz-adv-x="825" d="M4 1178v376q57 51 240 91q166 35 299 34q311 1 284 -206q-57 -461 -284 -1430q0 -23 -19 -31l-39 -20q-47 31 -57 43q-23 33 -16 104q14 170 125 631q88 373 106 426q8 16 8 27q0 12 -11 26.5t-13 22.5q-80 6 -146 6q-203 0 -477 -100z" />
<glyph unicode="8" horiz-adv-x="821" d="M74 500q0 201 102 305q51 51 156 80q-61 57 -144 151q-37 57 -47 88q-33 100 -32 197q0 205 104 301q53 49 96 49q92 0 174 -69q74 -61 113 -156q51 -168 43 -322q-6 -141 -70 -250q47 -33 127 -92q49 -45 74 -116q51 -145 51 -279q1 -96 -26 -188q-68 -236 -295 -238 q-164 -2 -271 125q-63 76 -118 231q-6 16 -7 33q-6 8 -14 35q-16 53 -16 115zM262 1327q-6 -61 14 -125q10 -33 41 -84q59 -59 105 -59q52 -1 70 71q12 47 -9 134q-18 55 -47 79q-35 47 -102 48q-53 0 -72 -64zM293 520q0 -121 65 -219q41 -61 105 -61q66 0 86 100 q20 92 -14 195q-41 119 -127 135l-21 4q-82 0 -92 -109q-2 -23 -2 -45z" />
<glyph unicode="9" horiz-adv-x="692" d="M47 1239q0 432 266 432q184 0 279 -201q66 -143 78 -360q2 -39 2 -100q0 -299 -54 -547q-74 -346 -233 -465q-27 -18 -55 -18q-29 0 -62 18q-41 66 -41 203q0 102 25 129q27 12 88 12q82 90 141 317q53 205 54 371q0 96 -60 187q-68 100 -160 100q-57 0 -93 -37t-34 -92 q6 -109 82 -166q10 -8 140 -68q76 -35 79 -92q2 -33 -34 -139q-43 -121 -86 -121q-293 0 -320 551q-2 43 -2 86z" />
<glyph unicode=":" horiz-adv-x="479" d="M102 793q0 31 33 95t58 89q8 4 77 6q66 0 78 -2q33 -8 29 -37q0 -29 -27 -92q-33 -76 -67 -90q-43 -6 -136 -6q-45 0 -45 37zM141 84q0 29 34 95.5t56 88.5q8 4 78 6q66 0 78 -2q29 -5 29 -36t-27 -93q-33 -76 -70 -90q-31 -6 -135 -6q-43 0 -43 37z" />
<glyph unicode=";" horiz-adv-x="479" d="M45 68l266 217q92 0 127 -43q29 -33 39 -131q6 -55 -41 -154l-266 -219q18 51 33 94q2 6 6 64q-6 92 -41 131t-123 41zM94 797q0 29 34 95t56 89q10 6 78 6q63 0 78 -2q29 -4 29 -37q0 -31 -27 -92q-33 -76 -70 -90q-31 -6 -135 -6q-43 0 -43 37z" />
<glyph unicode="&#x3c;" horiz-adv-x="1116" d="M117 539q49 80 338 192q338 133 409 180q12 8 52 -20.5t40 -42.5q-25 -90 -311 -176q-94 -29 -100 -35q0 -10 230 -70.5t224 -72.5q-25 -45 -114 -107q-96 -68 -137 -51q-53 33 -373 104q-274 61 -258 99z" />
<glyph unicode="=" horiz-adv-x="1087" d="M109 707q61 145 73 159q45 78 432 78q193 1 285 -22q0 -98 -51 -179q-33 -51 -359 -51q-174 0 -380 15zM186 350q63 137 78 158q59 90 137 90q68 0 138 2q145 4 166 4q94 -2 182 -10q25 0 59 -6q23 -10 37 -51q-31 -158 -129 -191q-41 -14 -264 -14q-182 0 -404 18z" />
<glyph unicode="&#x3e;" horiz-adv-x="1116" d="M123 764q25 45 118 109.5t134 50.5q53 -35 375 -107q272 -61 256 -98q-49 -76 -338 -191q-340 -133 -412 -182q-14 -6 -52 22.5t-38 43.5q23 84 311 174q100 31 101 37q0 8 -230.5 68.5t-224.5 72.5z" />
<glyph unicode="?" horiz-adv-x="1071" d="M68 1354q0 72 50 162t109 133q84 37 275 37q504 -1 504 -361q0 -63 -131.5 -273t-131.5 -212l21 -21q20 -20 20 -71t-63 -142q-66 -96 -111 -96t-93 40t-48 83q0 96 82 215q16 25 151 190q82 100 82 144q0 166 -405 166q-174 0 -293 -23q-18 -4 -18 29zM604 35 q106 262 176 307q39 14 70 14q40 0 63 -57q0 -41 -91 -166t-130 -141q-8 -6 -18 -6q-20 0 -70 49z" />
<glyph unicode="@" horiz-adv-x="1314" d="M102 485q-10 195 52 484q68 319 178 522q131 244 284 244q180 0 371 -308q174 -279 184 -477q8 -135 -47 -301q-70 -211 -194 -231q-41 -6 -105 65q-147 -178 -241 -178q-92 0 -162 98q-63 88 -70 197q-8 133 72 332q94 236 223 235q180 0 260 -231q14 -43 43 -131 q76 35 70 127q-4 76 -135 287q-150 242 -254 241q-106 0 -203 -170q-145 -258 -164 -807q-2 -90 104.5 -189t196.5 -99q141 0 369 143q45 29 256 168q68 -4 67 -64q0 -18 -4 -32q-57 -213 -311 -355q-236 -131 -469 -118q-121 6 -231 151q-127 166 -140 397zM539 741 q4 -68 67 -96q14 -6 27 -6q51 0 69 88q15 61 11 129q-4 74 -78 74q-37 0 -70 -78q-29 -70 -26 -111z" />
<glyph unicode="A" horiz-adv-x="899" d="M90 246v61q0 233 90 690q117 588 273 678q125 0 196 -364q18 -109 60 -326l8 -41q31 -156 63 -330q2 -12 8 -43q27 -149 52 -331q23 -166 22 -160q0 -51 -92 -51q-78 0 -108 53q-20 37 -27 125q-6 70 -27 182q-80 -29 -231 -92q-45 -23 -90 -51q-12 -12 -15 -19 q0 4 9 -104q1 -14 1 -28q0 -46 -10 -97h-143q-4 8 -8 33v4l-21 90q-10 55 -10 121zM322 684q182 78 182 98q0 51 -25 176q-27 133 -47 166q-33 -33 -74 -211q-37 -160 -36 -229z" />
<glyph unicode="B" horiz-adv-x="1013" d="M78 1094q10 182 227 389q206 196 345 196h1q143 0 189 -96q20 -41 20 -121q0 -22 -2 -47q-8 -170 -72 -280q-23 -35 -65 -109q0 -8 70 -43q200 -102 200 -313q0 -283 -149 -475q-166 -209 -441 -209q-135 0 -187 55t-52 192t78 203q29 23 30 21q0 -27 -1 -27q-2 0 -8 132 q-9 192 -9 257q0 59 2 115q-72 -18 -98 -19q-79 0 -79 144q0 17 1 35zM395 1139l25 -150q200 121 272 363q6 23 -14.5 36t-44.5 13q-14 0 -25 -4q-78 -33 -141 -103q-72 -78 -72 -155zM440 588q0 -326 31 -355q16 -1 30 -1q164 0 257 161q63 112 63 188q1 51 -59 104 q-62 54 -117 54q-154 0 -205 -151z" />
<glyph unicode="C" horiz-adv-x="1052" d="M74 688q-1 32 -1 63q0 258 87 523q127 387 368 387q301 0 328 -510q3 -63 3 -122q0 -169 -25 -312q-55 0 -97 -29q-100 0 -119 135q2 172 3 267q-2 186 -72 186q-59 0 -150 -113q-72 -90 -104 -168q-58 -134 -58 -270q0 -19 1 -37q16 -299 215 -338h522q27 -37 38 -57 t15 -86q1 -10 1 -20q0 -107 -60 -187h-680q-121 70 -174 311q-31 141 -41 377z" />
<glyph unicode="D" horiz-adv-x="1148" d="M80 915v408q125 186 215 256q129 98 313 98q319 0 432 -276q70 -172 70 -551q0 -307 -33 -475q-63 -313 -246 -373q-67 -22 -268 -22h-18q-135 0 -203 14q-123 25 -168 100q-37 305 -37 432l86 -20q-27 176 -86 452zM305 1047q29 -82 92 -566q111 -53 250 -53 q164 0 227 76q45 53 80 192q31 123 31 209q0 127 -92 246q-98 127 -221 127q-25 0 -47 -8q-125 -47 -320 -223z" />
<glyph unicode="E" horiz-adv-x="962" d="M59 1055v15q0 137 142 288q109 117 270.5 215t251.5 110q6 1 12 1q66 0 66 -103q0 -41 -10 -88q-14 -131 -35 -164t-90 -61q-205 -84 -344 -244q-80 -90 -80 -135q0 -33 43 -33q389 164 411 164q63 0 64 -123q0 -49 -1 -73.5t-1 -10.5v-11q0 -161 -109 -222l-364 -152 q4 -61 37 -78q256 16 413 17q150 -1 160 -17q10 -8 10 -45q0 -61 -28 -219q-8 -98 -113 -98q-10 0 -31.5 2t-32.5 2h-524q-33 59 -72 473q-27 274 -45 590z" />
<glyph unicode="F" horiz-adv-x="794" d="M72 1241q-1 17 -1 32q0 94 21 152q53 66 256 162q195 92 256 92q66 0 82 -92l8 -100q4 -41 4 -74q0 -70 -16 -96q-29 -49 -145 -105q-168 -80 -283 -161l8 -281q7 -1 14 -1q63 -1 200 59q153 66 188 67q73 0 79 -178q1 -23 1 -43q0 -111 -19 -133q-29 -18 -217 -72 q-174 -49 -201 -80q2 -92 2 -162q0 -236 -30 -235q-92 0 -115 92q-2 12 -39 362q0 4 -25 349q-25 362 -28 446z" />
<glyph unicode="G" horiz-adv-x="1163" d="M55 754v12q0 93 29 262q43 248 125 410q122 239 313 239h2q172 0 246 -121q41 -66 82 -274q31 -154 31 -254q0 -86 -27 -88h-13q-92 0 -136 80q-20 53 -62 160q-35 88 -115 88q-127 0 -221 -252q-76 -202 -76 -324v-6q2 -135 73 -213t204 -78q139 0 203 74q10 12 20 25 h-293l-6 333q82 68 340 68q219 0 287 -301q25 -108 31 -401q2 -88 2 -166q0 -261 -21 -396q-57 -57 -104 -57q-18 61 -23 387q-4 309 -20 330q-109 -315 -408 -316q-446 0 -463 779z" />
<glyph unicode="H" horiz-adv-x="962" d="M78 1556q29 37 104 37q45 0 78 -12q16 -143 19 -420q0 -236 18 -276q74 2 281 53q4 115 4 756q29 14 67 14q82 0 109 -35q14 -72 20 -295q8 -315 15 -403q26 -346 110 -989q-27 -31 -92 -31q-43 0 -59 12q-47 72 -88 355q-18 139 -39 276q23 0 23 -3q0 -5 -96 -23 q-142 -26 -216 -31q14 -166 14 -291v2q-1 0 -12 -238q-34 -22 -87 -22h-5q-55 0 -82 22q-27 33 -27 236q0 23 2 129q1 40 1 72.5t-1 56.5q-6 137 -61 1048z" />
<glyph unicode="I" horiz-adv-x="536" d="M125 1309q0 180 20 286q49 27 99 27q45 0 80 -27q-1 -32 -1 -70q0 -358 111 -1238q8 -66 8 -135q0 -121 -47 -121q-35 -31 -76 -31q-39 0 -77 31q-10 180 -58 557q-45 365 -55 557q-4 82 -4 164z" />
<glyph unicode="J" horiz-adv-x="983" d="M61 915q0 188 166 383q131 154 330 279q170 106 231 106q63 0 123 -47q31 -31 31 -102q0 -76 -31 -172q-188 -20 -456 -246q-123 -104 -174 -219q-27 -59 -41 -152q-8 -55 -41 -55q-76 0 -105 53q-12 23 -26 103q-6 35 -7 69zM289 387q0 70 41 90q1 1 4 1q23 0 128 -72 q116 -80 150 -80q27 0 27 16q0 15 -21 164q-28 192 -28 315v8v328q84 57 106 57q25 0 62 -18q-3 -121 -3 -207q0 -42 1 -76q6 -237 63 -667q-12 -143 -14 -152q-29 -114 -125 -114h-2q-360 84 -381 311q-8 88 -8 96z" />
<glyph unicode="K" horiz-adv-x="1003" d="M72 1628q51 2 88.5 2t60.5 -2q37 -84 51 -444q12 -332 37 -340q201 348 232 407q141 270 141 377q0 31 49 31q53 0 143 -31q0 -248 -135 -557q-121 -272 -297 -493q-1 -4 -1 -9q0 -42 114 -92q84 -37 242 -90l16 -6q123 -41 129 -57v-355q-80 10 -248 68q-201 70 -315 94 q27 -80 27 -111q0 -12 -7 -12h-178q-94 397 -149 1620z" />
<glyph unicode="L" horiz-adv-x="1159" d="M98 1386q0 199 19 250q96 0 125 -28q23 -106 32 -414q12 -379 56 -729q229 -23 334 -23q-12 0 372 23q17 -85 54 -445q-223 -22 -369 -22h-12q-168 0 -430 22q-23 66 -64 195t-86 492q-31 246 -31 679z" />
<glyph unicode="M" horiz-adv-x="1400" d="M74 1614h133q37 -53 104 -289q72 -252 131 -360q94 -176 224 -177q92 0 182 185q51 104 141 383q82 252 125 321q18 -10 111 -88q-2 -88 -2 -207q0 -925 123 -1390h-150q-102 258 -158 778q-129 -459 -352 -459q-119 0 -258 142q-45 -162 -45 -420q-31 -31 -102 -31 q-70 0 -101 31q-47 25 -59 467q-18 735 -47 1114z" />
<glyph unicode="N" horiz-adv-x="1267" d="M90 1055q0 244 33 481q31 12 61 12q47 0 88 -28q16 -27 17 -82q0 -72 2 -88l575 -613q-45 356 -45 533q0 53 15 192q18 182 43 248q14 0 41.5 6t42.5 6q43 0 67 -43q0 -59 -8 -177t-8 -177q0 -449 119 -819q61 -193 61 -299q0 -147 -20 -227h-117q-82 111 -352 401 q-313 338 -439 422q2 -109 24.5 -329t22.5 -333q0 -49 -8 -65q-12 -29 -53 -29q-45 0 -90 23q-72 215 -72 985z" />
<glyph unicode="O" horiz-adv-x="972" d="M104 846q0 561 250 786q66 59 95 60q143 0 278 -230q151 -258 174 -637q4 -70 4 -149q0 -709 -358 -709q-264 0 -367 273q-53 143 -71 462q-4 72 -5 144zM262 788q0 -27 4 -51q37 -221 148 -317q61 -53 110 -53q119 0 174 149q36 94 36 192q0 14 -1 29q-4 84 -45 215 q-51 166 -108 166q-8 0 -17 -8q-43 -88 -117 -88q-47 0 -96 37q-35 0 -63 -119q-25 -98 -25 -152z" />
<glyph unicode="P" horiz-adv-x="897" d="M76 1286q0 156 86 279q96 139 246 139q415 0 415 -471q0 -248 -35 -393q-55 -233 -206 -318q-98 -41 -197 -84q0 -45 8 -170q10 -164 15 -268h-154q-37 20 -102 545q-25 186 -50 370q-26 223 -26 361v10zM276 1053q0 -29 19 -185q129 12 228 86t130 195 q-20 59 -85.5 113.5t-125.5 54.5q-84 0 -131 -109q-35 -82 -35 -155z" />
<glyph unicode="Q" horiz-adv-x="1046" d="M102 836q0 567 254 794q70 61 97 62q145 0 278 -230q150 -258 170 -637q4 -77 4 -147q0 -180 -26 -318q92 -132 225 -249l-199 -129q-63 55 -123 120q-92 -135 -239 -135q-264 0 -367 273q-53 141 -70 462q-4 78 -4 134zM262 786q0 -23 4 -49q35 -223 144 -317 q61 -53 110 -53q31 0 66 10q-59 100 -113 215l201 127q16 -41 51 -105q6 59 6 102v21q-4 84 -43 215q-49 166 -106 166q-8 0 -17 -8q-45 -88 -119 -88q-45 0 -94 37q-35 0 -65 -121q-25 -98 -25 -152z" />
<glyph unicode="R" horiz-adv-x="1079" d="M47 1094q0 225 174 409q164 174 334 174q217 0 291 -155q45 -94 45 -297q0 -195 -107 -416q-88 -182 -200 -305q0 -43 197.5 -105.5t201.5 -76.5v-351q-68 8 -246 78q-190 76 -284 96q6 -27 6 -49q0 -76 -62 -94q-49 -2 -98 -6q-92 379 -96 803q-156 0 -156 295z M299 1028q59 -47 82 -139q10 -39 18 -144q6 -70 25 -75l184 291q101 162 101 264q0 41 -44 63.5t-90 22.5q-115 0 -188 -111q-43 -86 -88 -172z" />
<glyph unicode="S" horiz-adv-x="1214" d="M84 967q0 207 121 376q111 154 307 254q135 70 193 70q37 0 76.5 -66.5t39.5 -109.5q0 -33 -26 -193q-133 0 -275 -71q-168 -84 -180 -203q-1 -2 -1 -5q0 -30 97 -30q29 0 86.5 2t85.5 2q268 0 398 -92q146 -103 146 -335q0 -18 -1 -36q-12 -295 -109 -411 q-109 -133 -389 -133h-354q-2 12 20 213l21 209q53 49 205 77q25 0 56.5 -55t103.5 -55q176 0 194 49q1 4 1 9q0 76 -202 122q-152 35 -268 35q-55 0 -113 -6q-133 27 -172 75q-61 78 -61 308z" />
<glyph unicode="T" horiz-adv-x="1034" d="M59 1346q176 98 353 196q213 115 362 162q63 20 176 22q37 -319 37 -403q0 -55 -12 -55q-6 1 -14 1q-100 0 -365 -151l57 -1077q-47 -49 -127 -51q-23 0 -47 -10l-82 1067q-266 -184 -305 -185q-4 0 -6 2z" />
<glyph unicode="U" horiz-adv-x="1140" d="M92 1163q0 72 12 240q8 110 8 174q0 19 -1 35h176q0 -74 -11.5 -223.5t-11.5 -225.5q0 -348 39 -485q78 -268 334 -287q19 -1 37 -1q141 0 190 83q43 72 43 285q0 444 -270 489l41 375q6 4 78 4q98 0 190 -223q115 -278 115 -733q0 -699 -290 -699h-15q-299 16 -432 66 q-143 248 -195 559q-37 223 -37 567z" />
<glyph unicode="V" horiz-adv-x="974" d="M78 1118q8 197 12 244q12 129 49 141q45 27 94 27q41 0 72 -14q-8 -49 -8 -115q0 -195 70 -412q66 -209 176 -377q84 535 219 1092q14 12 55 12q95 0 95 -66q0 -7 -1 -16l-245 -1534q-47 -49 -84 -73l-50 -33q-131 102 -292 485q-162 385 -162 617v22z" />
<glyph unicode="W" horiz-adv-x="1505" d="M74 911q0 84 16 324q20 301 47 405h162q-14 -213 -14 -395q0 -373 55 -581q43 -166 94 -179q55 49 55 230q0 78 -1 132t-1 32q0 225 31 419q41 86 92 86q31 0 113 -67q-8 -119 -8 -219q0 -631 313 -631q90 0 149.5 68.5t59.5 160.5q0 272 -285 504q0 279 95 477 q205 -125 307 -395q88 -230 88 -504q0 -315 -86 -524q-109 -264 -328 -264q-129 0 -240 88q-55 45 -149 155q-74 -215 -199 -215q-162 0 -272 324q-94 279 -94 569z" />
<glyph unicode="X" horiz-adv-x="1220" d="M80 1247q0 246 100 363q20 0 514 -582q174 420 174 520q0 16 -4 27l228 106q0 -195 -76 -424q-47 -143 -170 -411q274 -342 307 -459q0 -293 -61 -371h-103q-70 109 -315 418q-51 -143 -66 -278q-152 -156 -225 -156q-14 0 -27 8q0 164 170 606q-16 18 -272 326 q-158 188 -158 209q-16 18 -16 98z" />
<glyph unicode="Y" horiz-adv-x="1181" d="M68 1073q0 109 22 328q47 74 156 74q39 0 73 -13q-36 -160 -36 -255v-5q0 -182 120 -182q195 0 385 231q154 188 154 359q0 31 -6 57q45 23 94 23q76 -1 76 -52q14 -84 14 -165q0 -414 -346 -715q0 -74 8.5 -222.5t8.5 -222.5q0 -164 -21 -317h-178q0 365 -35 643 q-96 -27 -174 -27q-315 0 -315 461z" />
<glyph unicode="Z" horiz-adv-x="1306" d="M82 1057q0 111 27 219q20 37 65 113q164 268 344 268q254 0 254 -295q0 -193 -53 -352q-6 -18 -111 -262q-70 -164 -90 -320q29 -2 66 -2q70 0 209 11.5t208 11.5q260 0 260 -150q0 -10 -1 -20q-27 -123 -27 -236q-279 -6 -639 -35q-104 -8 -139 -8q-133 0 -168 92 q-20 49 -21 213q0 160 123 486.5t123 435.5q0 31 -18 30q-88 0 -168 -153q-59 -117 -82 -230q-36 -30 -72 -30h-2q-35 0 -61 30q-27 78 -27 183z" />
<glyph unicode="[" horiz-adv-x="763" d="M23 940q0 444 167 782q209 418 603 471h1480v-397h-1421q-236 -158 -360 -508q-98 -276 -99 -592q0 -92 8 -188q41 -459 275 -873q10 -20 67 -114q-344 162 -540 577q-180 383 -180 842z" />
<glyph unicode="\" horiz-adv-x="12" d="M-25 1796v397h1084v-397h-1084z" />
<glyph unicode="]" horiz-adv-x="724" d="M-594 1796v397h608q367 -41 557 -462q147 -332 148 -754q0 -449 -164 -827q-189 -434 -541 -629q10 12 11 33q0 18 -9.5 55t-9.5 55t8 31q326 457 326 1040q0 295 -90 570q-102 317 -293 491h-551z" />
<glyph unicode="^" horiz-adv-x="12" d="M-25 1796v397h1424v-397h-1424z" />
<glyph unicode="_" horiz-adv-x="12" d="M-25 1774v419h1012v-419h-1012zM-20 -256h1007v-424h-1007v424z" />
<glyph unicode="`" horiz-adv-x="837" d="M41 1174q-23 393 248 542q70 39 98 39q133 0 258 -133q142 -150 156 -379q12 -180 -47 -313q-88 -199 -310 -199q-242 0 -338 164q-55 94 -65 279zM223 1235q0 -18 2 -35q14 -115 109 -145q25 -8 96 -8q74 0 126 38.5t52 110.5q0 51 -22 121q-31 90 -72 84 q-43 -49 -90 -49q-45 0 -127 47q-74 -51 -74 -164z" />
<glyph unicode="a" horiz-adv-x="739" d="M70 250q0 186 73 547q96 469 226 549q90 -6 145 -199q8 -20 78 -361q63 -304 100 -585l19 -138q0 -51 -90 -51q-82 0 -107 84l-33 197q-205 -78 -229 -107q0 -154 -6 -194h-146q-30 153 -30 252v6zM289 575q104 25 104 50q0 61 -24 184l-31 2q-33 -102 -49 -236z" />
<glyph unicode="b" horiz-adv-x="835" d="M51 883q6 135 173 308t300 173q172 0 172 -190q0 -119 -49 -238q-16 -37 -51 -111q0 -4 68.5 -51t80.5 -63q52 -68 52 -170q0 -242 -113 -394q-125 -170 -358 -170q-117 0 -162 48.5t-45 167.5q0 68 88 178q0 -12 -1 -12t-5 65q-6 88 -8 133q-1 34 -1 77.5t1 96.5 q-45 -12 -68 -12q-75 0 -75 136q0 13 1 28zM342 928l2 -107q164 107 211 271q4 12 -18 18q-12 3 -21.5 3t-17.5 -3q-86 -33 -121 -82q-20 -29 -35 -100zM360 362q0 -117 23 -155q10 -1 19 -1q126 0 202 124q55 87 55 142q0 37 -49 73q-51 37 -90 37q-72 0 -117 -50 q-6 -10 -38 -63q-4 -59 -5 -107z" />
<glyph unicode="c" horiz-adv-x="876" d="M59 555q-2 28 -2 56q0 192 72 405q104 313 293 313q246 0 270 -418q3 -52 3 -101q0 -139 -25 -255q-49 0 -82 -25q-98 0 -99 183q0 25 2.5 75t2.5 74q0 121 -54 121q-55 0 -131 -119q-83 -129 -83 -282q0 -14 1 -27q12 -213 140 -238h403l37 -57q12 -19 14 -78v-12 q0 -86 -55 -170h-528q-154 92 -179 555z" />
<glyph unicode="d" horiz-adv-x="929" d="M63 700v351q100 152 173 209q101 83 246 83h3q252 0 342 -221q60 -145 60 -442q0 -252 -27 -381q-49 -248 -198 -297q-57 -18 -226 -18q-238 0 -301 104q-31 246 -31 371l66 -17q-6 131 -47 277q-18 -8 -60 -19zM285 774q0 -133 57 -350q84 -47 172 -47q160 0 203 80 q26 51 26 235q0 115 -98 209q-84 80 -147 80q-90 0 -151.5 -58.5t-61.5 -148.5z" />
<glyph unicode="e" horiz-adv-x="768" d="M55 834v14q0 154 207 323q190 158 320 177q6 1 12 1q30 0 48 -25q16 -24 16 -68q0 -11 -1 -23q0 -10 -4 -57q-6 -104 -26 -138q-14 -25 -70 -49q-78 -35 -133 -74q-199 -143 -199 -192q0 -12 21 -14q303 125 315 125q49 0 62 -76q2 -16 4 -105v-7q0 -131 -74 -175 q-133 -53 -268 -109q0 -47 -2 -45q188 8 272 9q160 -1 168 -19q10 -8 10 -51q0 -33 -6 -86q-8 -68 -10 -84q-6 -74 -66 -90q-14 -4 -92 -4h-409q-51 100 -95 842z" />
<glyph unicode="f" horiz-adv-x="632" d="M59 981q-1 17 -1 32q0 80 18 124q35 49 196 131q154 78 199 78q53 0 74 -80q15 -115 15 -170q0 -12 -1 -21q-2 -31 -10 -47q-23 -35 -109 -80q-115 -59 -202 -127l6 -180q41 4 142 50t126 46q78 0 84 -162q1 -18 1 -34q0 -89 -19 -119q-20 -12 -160 -55 q-131 -39 -154 -68q-2 -2 -2 -12q0 -39 7 -117t7 -117q0 -41 -6 -51q-8 -18 -45 -18q-74 0 -96 55q-12 31 -18 125l-13 203q0 -36 -1 -36q-4 0 -17 249q-16 299 -21 401z" />
<glyph unicode="g" horiz-adv-x="944" d="M68 598v18q0 160 67 379q106 348 311 348q139 0 201 -100q37 -59 70 -227q12 -63 12 -148q0 -137 -29 -145q131 -45 174 -268q17 -86 21 -291q2 -83 2 -153q0 -189 -12 -294q-57 -59 -123 -59q-17 70 -17 227v49q1 46 1 85q0 138 -11 192q-29 -100 -108 -168 q-86 -72 -187 -72q-207 0 -301 226q-68 156 -71 401zM248 549q6 -213 186 -213q37 0 86 26.5t49 59.5l-211 18l-4 230q82 63 277 63q-41 23 -80 141q-33 104 -98 105q-92 0 -156 -186q-49 -146 -49 -237v-7z" />
<glyph unicode="h" horiz-adv-x="845" d="M31 606q0 59 12 92l86 13q-6 143 -6 528q35 43 108 43q41 0 76 -16q12 -113 12 -230v-202q0 -63 9 -103l176 35v584q33 18 71 18q76 0 105 -37q13 -74 13 -218v-57v-49q0 -149 16 -225q0 -2 4 -2q10 0 45 27q51 -75 51 -286v-32l-66 -10q49 -266 50 -416q0 -33 -5 -49 q-28 -34 -94 -34h-4q-39 0 -53 12q-37 61 -64 239q-10 74 -30 224q-39 -16 -54 -21q-55 -14 -127 -18q6 -80 7 -180q0 -102 -7 -226q-37 -18 -90 -18t-79 16q-14 20 -15 160v174q0 25 -6 51q-12 -4 -104 -24q-37 127 -37 237z" />
<glyph unicode="i" horiz-adv-x="479" d="M121 1053q0 133 14 219q41 24 83 24h3q45 0 78 -28v-30q0 -252 90 -984q6 -53 6 -96q0 -113 -41 -127q-29 -27 -63 -27q-37 0 -76 35q-8 152 -43 432q-39 297 -47 434q-4 63 -4 148z" />
<glyph unicode="j" horiz-adv-x="800" d="M59 729q0 150 129 307q102 125 258 226q133 86 181 86q51 0 106 -41q29 -29 29 -99q0 -69 -25 -155q-156 -16 -346 -185q-96 -84 -137 -174q-20 -45 -37 -119q-10 -43 -35 -43q-68 0 -95.5 49.5t-27.5 147.5zM236 246q-2 27 -2 51q0 92 38 117q1 1 2 1q15 0 92 -61 q85 -65 111 -65q12 0 19 10q1 1 1 5q0 20 -18 120q-24 146 -24 235v7v213q76 57 102 57q27 0 70 -25q-3 -68 -3 -126q0 -29 1 -56q6 -178 47 -516q-4 -96 -15 -131q-29 -98 -112 -98q-291 70 -309 262z" />
<glyph unicode="k" horiz-adv-x="776" d="M37 1315q53 4 90 4t61 -4q29 -68 35 -303q6 -258 13 -287q258 455 258 567q0 35 65 35q51 0 123 -18q0 -205 -98 -447q-88 -221 -228 -397q-2 -43 185.5 -108.5t189.5 -73.5l2 -308q-74 10 -196 52q-166 55 -224 71q4 -33 4 -53q0 -37 -12 -37q-57 0 -149 -4 q-78 334 -119 1311z" />
<glyph unicode="l" horiz-adv-x="940" d="M70 1114q0 168 16 215q100 0 135 -35q16 -84 25 -331q10 -293 43 -560q156 -16 231 -16q45 2 303 21q2 -7 47 -390q-193 -18 -309 -18q-135 0 -348 18q-18 55 -55 168q-29 92 -64 383q-24 195 -24 519v26z" />
<glyph unicode="m" horiz-adv-x="1085" d="M37 1286h133q29 -43 80 -225q53 -193 94 -275q68 -135 162 -135q68 0 133 142q33 72 102 294q59 188 101 256q43 -27 112 -90q-1 -81 -1 -158q0 -715 100 -1103h-187q-82 211 -116 516q-84 -276 -226 -277q-82 0 -182 93q-25 -100 -25 -283q-37 -35 -106 -35 q-55 0 -82 23q-39 25 -51 370q-25 645 -41 887z" />
<glyph unicode="n" horiz-adv-x="1001" d="M72 842q0 164 26 391q35 12 66 12q47 0 86 -26q12 -23 14 -66q2 -63 4 -72q156 -162 381 -419q-22 230 -22 337v9q0 37 12 155q16 152 37 207q14 0 41.5 4t42.5 4q47 0 71 -45q0 -47 -7 -143t-7 -143q0 -340 92 -631q47 -150 47 -234q0 -111 -20 -198h-121 q-55 80 -242 286q-209 231 -321 328q2 -76 17.5 -234.5t15.5 -240.5q0 -31 -6 -51q-14 -33 -70 -33q-41 0 -78 20q-59 190 -59 783z" />
<glyph unicode="o" horiz-adv-x="743" d="M66 565q-2 43 -2 84q0 459 206 649q57 53 84 54q115 0 219 -183q120 -205 132 -510q2 -40 2 -79q0 -189 -41 -338q-72 -268 -258 -269q-207 0 -287 220q-47 127 -55 372zM229 635q0 -88 41 -186q51 -121 123 -121q78 0 115 106q23 66 23 138q0 11 -1 22q-2 66 -18 151 q-23 125 -51 125q-4 0 -8 -4q-41 -80 -109 -80q-37 0 -78 27q-37 -33 -37 -178z" />
<glyph unicode="p" horiz-adv-x="692" d="M49 975q-2 21 -2 42q0 115 57 214q78 131 213 131q330 0 330 -385q0 -453 -176 -563q-74 -35 -147 -68q0 -37 6 -129q8 -133 12 -217h-20q-20 2 -43 2h-82q-29 16 -84 428q-47 346 -64 545zM252 721q82 12 143.5 62t79.5 128q-14 37 -55 73t-78 36q-51 0 -78 -68 q-22 -51 -22 -107q0 -38 10 -124z" />
<glyph unicode="q" horiz-adv-x="839" d="M66 565q-2 44 -2 85q0 460 204 648q57 53 84 54q113 0 219 -183q119 -203 131 -510q2 -43 2 -85q0 -145 -22 -269q70 -101 176 -201l-188 -127q-31 31 -84 86q-68 -90 -180 -90q-205 0 -285 220q-47 127 -55 372zM229 635q0 -86 41 -184q51 -123 121 -123q10 0 12 2 q-25 51 -73 157l186 127q23 -45 29 -61q-2 6 -10 22l-5 -14q0 8 -4 33q-2 59 -16 151q-20 125 -49 125q-4 0 -8 -4q-41 -80 -109 -80q-37 0 -78 27q-37 -33 -37 -178z" />
<glyph unicode="r" horiz-adv-x="845" d="M43 868q0 160 119 312q126 163 280 163h2q176 0 238 -126q39 -80 39 -248q0 -158 -74 -307q-59 -119 -215 -320q-2 -37 176 -51.5t180 -22.5l7 -291q-211 29 -369 29q-92 0 -190 -8q-68 293 -76 620q-117 23 -117 250zM227 823q47 -49 62 -243q14 25 157 204 q95 119 95 185q0 45 -78 45q-68 0 -139 -66q-59 -53 -97 -125z" />
<glyph unicode="s" horiz-adv-x="929" d="M53 770q0 328 342 506q106 55 152 55q33 0 72.5 -59.5t39.5 -95.5q0 -27 -26 -175q-100 0 -205 -47q-127 -57 -135 -143q-6 -27 69 -27q23 0 69 2t69 2q180 0 276 -59q130 -80 130 -271q0 -14 -1 -28q-12 -238 -84 -330q-85 -108 -307 -108h-4h-293v6q0 30 14 176l15 170 q51 51 180 76q18 0 42 -42t79 -42q79 0 79 -1l-5 -1q43 2 51 22v6q0 51 -140 76q-96 18 -184 19q-47 0 -96 -4q-113 23 -146 61q-53 63 -53 256z" />
<glyph unicode="t" horiz-adv-x="800" d="M41 1079q260 145 276 154q170 90 283 129q47 16 162 20q14 -141 14 -249q0 -150 -20 -150q-4 1 -9 1q-68 0 -258 -103l29 -826q-41 -41 -84 -49q-68 -12 -92 -22l-45 817q-211 -111 -238 -111q-4 0 -6 2z" />
<glyph unicode="u" horiz-adv-x="872" d="M57 922q0 53 9 182q4 88 4 147v37h180q0 -61 -9.5 -183t-9.5 -183q0 -260 25 -357q53 -207 233 -217h19q103 0 135 60q27 49 27 200q0 317 -205 361l33 329q20 2 80 2q80 0 155 -176q96 -223 96 -583q0 -564 -241 -564h-13q-227 14 -337 56q-111 199 -152 442 q-29 174 -29 447z" />
<glyph unicode="v" horiz-adv-x="761" d="M61 895q10 293 58 317q39 20 78 21q43 0 82 -19q-6 -45 -7 -98q0 -283 148 -547q59 389 155 787q18 16 64 16q91 0 91 -67q0 -8 -1 -17l-184 -1190q-41 -33 -119 -102q-125 100 -250 420q-115 292 -115 462v17z" />
<glyph unicode="w" horiz-adv-x="1204" d="M61 719q0 84 13 252q16 233 41 332h166q-12 -190 -13 -349q0 -467 88 -532q27 37 27 135v31q-2 31 -2 51v96q0 152 20 289q39 84 91 84q33 0 114 -64q-8 -119 -8 -202q0 -438 217 -439q59 0 97 45.5t38 106.5q0 186 -215 377q0 227 86 411q170 -111 256 -317 q76 -183 76 -408q0 -227 -61 -393q-88 -233 -277 -233q-145 0 -291 164q-59 -141 -159 -142q-129 0 -222 254q-82 225 -82 451z" />
<glyph unicode="x" horiz-adv-x="962" d="M49 965q0 213 86 313q39 0 395 -426q115 281 115 358q0 16 -4 29l221 107q0 -174 -57 -357q-39 -121 -125 -317q202 -259 227 -353q0 -236 -55 -311h-102q-49 82 -218 295q-29 -90 -34 -172q-119 -127 -201 -127q-23 0 -39 10q0 145 127 469l-326 408q-10 12 -10 74z" />
<glyph unicode="y" horiz-adv-x="917" d="M41 866q0 92 16 252q45 70 146 70q41 0 80 -14q-37 -160 -37 -230q0 -108 70 -108h1q8 0 27 4q131 29 242.5 163t111.5 269q0 29 -6 53q53 27 103 27q75 -1 75 -54q12 -68 13 -135q0 -322 -262 -561l12 -313q0 -147 -19 -291h-178q0 270 -22 491q-61 -14 -113 -14 q-260 0 -260 391z" />
<glyph unicode="z" horiz-adv-x="1046" d="M66 846q0 88 20 174q92 150 102 162q111 143 228 143q202 0 202 -233q0 -199 -86 -392q-98 -221 -116 -358q18 -2 45 -2q54 0 144 8q136 12 196 12q207 0 207 -127v-10q-23 -102 -23 -188q-221 -6 -512 -29q-80 -6 -108 -6q-106 0 -136 74q-16 39 -16 170q0 127 98.5 389 t98.5 348q0 25 -15 25q-70 0 -133 -123q-51 -94 -67 -183q-28 -24 -58 -24h-2q-29 0 -49 24q-20 61 -20 146z" />
<glyph unicode="{" horiz-adv-x="641" d="M23 502q0 782 415 1691h1409v-419h-1433q-195 -365 -195 -910q0 -301 57 -602q49 -254 115 -397h1575v-422h-1687q-256 408 -256 1059z" />
<glyph unicode="|" horiz-adv-x="10" d="M-23 1774v419h1420v-419h-1420zM-20 -135h1417v-422h-1417v422z" />
<glyph unicode="}" horiz-adv-x="544" d="M-879 -135h1164q63 137 63 559q0 193 -16 434q-45 674 -170 916h-987v419h1087q260 -301 270 -1335q4 -354 -32 -733q-53 -559 -168 -682h-1211v422z" />
<glyph unicode="~" horiz-adv-x="641" d="M23 502q0 782 415 1691h781v-419h-805q-195 -365 -195 -910q0 -301 57 -602q49 -254 115 -397h946v-422h-1058q-256 408 -256 1059z" />
<glyph unicode="&#xa0;" />
<glyph unicode="&#xa1;" horiz-adv-x="729" d="M47 733q4 66 21 236q25 236 108 438q96 231 252 233q115 2 162 -71q35 -53 55 -170q18 -100 19 -182q0 -250 -148 -545q-70 -139 -70 -154q0 -6 15 -6q12 0 16 2q45 35 141 96l15 8q4 2 20 3q55 0 88 -80q29 -109 29 -158q0 -145 -121 -277.5t-264 -134.5q-88 -2 -131 54 q-25 31 -47 131l-12 53q-25 106 -25 211q0 231 158 530q74 139 61 199q-4 20 -14 33q-39 0 -135 -264q-35 -94 -82 -213q-10 0 -15 -3q-27 -6 -30 -8q-16 0 -31 8q-20 16 -35 31z" />
<glyph unicode="&#xa2;" horiz-adv-x="724" d="M-2259 -170h2259q156 96 264 432q88 274 78 395l84 129q33 -90 33 -233q0 -231 -103 -604q-119 -438 -262 -516h-2353v397z" />
<glyph unicode="&#xa3;" horiz-adv-x="923" d="M2 1722q0 268 369 416q139 55 352 55h1214v-419h-1239q-258 0 -282 -140q-12 -74 55 -155q6 -8 131 -144q74 -80 74 -131q0 -12 -4 -22q-23 -72 -109 -131q-98 -66 -125 -115q-47 -86 -47 -174q0 -117 78 -246q33 -47 63 -92q39 -59 39 -100q0 -55 -71 -154 q-47 -66 -47 -117q0 -70 39 -125q45 -63 110 -63h1454v-422h-1493q-78 43 -123 88q-14 14 -84 107q-41 49 -120 147q-53 68 -54 178q0 96 31 199q6 20 6 41q0 45 -35 96q-25 31 -67 96q-78 129 -78 246q0 88 47 174q29 53 127 158q109 117 109 192q0 72 -113 193l-146 155 q-61 106 -61 209z" />
<glyph unicode="&#xa4;" horiz-adv-x="2117" d="M106 473q0 993 353 1655h1364q276 -873 276 -1727q0 -492 -104 -901h-1721q-92 59 -137 463q-31 266 -31 510zM293 561q0 -399 98 -706h1514q18 231 18 456q0 309 -35 598q-72 586 -211 863h-1222q-162 -1096 -162 -1211zM594 901v385q121 176 205 240q121 94 295 94 q301 0 407 -260q68 -166 68 -522q0 -289 -33 -449q-59 -297 -231 -352q-63 -20 -271 -21q-289 0 -350 109q-37 287 -37 407l84 -20q-27 168 -84 428zM807 1024q27 -78 88 -535q102 -49 235 -49q156 0 216 72q41 51 73 182q31 117 31 197q0 119 -88 231q-92 121 -209 121 q-20 0 -43 -8q-121 -45 -303 -211z" />
<glyph unicode="&#xa5;" horiz-adv-x="724" d="M-2259 1796v397h2273q131 -68 310 -524q184 -471 184 -776q0 -78 -14 -133l-99 129q0 127 -123 436q-150 375 -315 471h-2216z" />
<glyph unicode="&#xa7;" horiz-adv-x="10" d="M-23 1774v419h1420v-419h-1420zM-20 -135h1417v-422h-1417v422z" />
<glyph unicode="&#xa8;" horiz-adv-x="0" d="M-35 1038h1196q4 117 8 168q31 430 121 490q18 0 19 -37q0 -18 -25 -191q-45 -315 -45 -684q0 -434 74 -706q24 -92 24 -96q-2 -29 -26 -80q-27 -57 -51 -58q-94 47 -109 668h-1106z" />
<glyph unicode="&#xa9;" horiz-adv-x="1581" d="M55 793q0 209 117 444q111 225 274 369q199 174 422 174q285 0 451 -269q104 -170 186 -516q18 -78 19 -184q0 -301 -127 -510q-168 -279 -518 -278q-39 0 -68 2q-332 23 -509 186.5t-239 493.5q-8 43 -8 88zM201 795q0 -25 2 -52q80 -174 260 -266q162 -84 366 -84 q553 0 553 414q0 74 -20 162q-43 186 -188.5 294.5t-339.5 108.5q-231 0 -422 -153q-211 -170 -211 -424zM504 834q-6 129 57 276q82 188 230 188q195 0 210 -251q8 -119 -20 -213q-39 0 -31 -15q-78 0 -78 111q0 14 2.5 44t2.5 44q0 74 -43 74q-109 0 -172.5 -74 t-57.5 -184q6 -127 141 -142h318q12 -18 23.5 -35.5t11.5 -46.5q2 -63 -45 -110h-414q-121 61 -135 334z" />
<glyph unicode="&#xaa;" />
<glyph unicode="&#xab;" horiz-adv-x="806" d="M57 481q0 88 45 205q74 188 207 221q-39 59 -59 107q-27 49 -37 90v10q-2 6 -2 8q-2 29 -2 54q0 125 61 290q74 199 160 199q96 0 176 -74q72 -70 96 -168q29 -115 -4 -317q-27 -164 -61 -221q27 -27 80 -66q88 -94 88 -330q0 -137 -49 -264q-94 -244 -326 -245 q-164 -2 -262 131q-55 76 -90 233q-6 29 -6 33q-6 29 -6 33q-8 35 -9 71zM342 578q-25 -139 29 -224q25 -39 51 -39q49 0 61 101q8 72 -2 133q-14 84 -57 92q-10 4 -23 8q-47 0 -59 -71zM385 1247q0 -25 4 -53q10 -37 25 -68q23 -29 45 -36q31 -12 49 40q12 50 2 107 q-12 74 -66 86q-39 8 -55 -31q-4 -20 -4 -45z" />
<glyph unicode="&#xac;" horiz-adv-x="684" d="M66 922q-4 25 6 71q14 59 14 72q10 162 107 365q113 242 233 243q137 2 137 -213q0 -86 -26 -213q-35 -168 -68 -217q0 -25 4 -35q6 -37 64 -51q156 -37 155 -209q2 -16 0 -92q-4 -166 -104 -364q-109 -213 -244 -283l-25 -10q-6 -2 -20 -4q-45 0 -59 86q-10 55 -7 120 q6 111 35 154q88 94 195 213q-2 14 -29 14q-55 2 -182 -94q-14 -8 -44 -10t-40 -6q-23 0 -33 37q-8 29 0 92q4 23 12 84q2 123 123 336q49 86 37 131q-25 0 -91 -128t-99 -130q-4 0 -25 4q-18 14 -26 37z" />
<glyph unicode="&#xad;" horiz-adv-x="872" d="M70 551q0 27 35.5 95.5t58.5 82.5q6 8 51 4q72 -4 152 0q84 6 362 27q16 2 29 2q45 0 45 -35q0 -27 -36 -108.5t-54 -88.5l-299 -30q-41 -4 -148 -6q-121 -2 -149 6q-47 12 -47 51z" />
<glyph unicode="&#xae;" horiz-adv-x="860" d="M-2359 -135h2818q27 23 82 72q23 20 22 94q0 92 -123 245.5t-129 249.5q-4 70 77 140.5t81 126.5q0 57 -84 174q-123 172 -123 276q0 70 37 146q72 147 72 256q0 92 -60 129h-2617v419h2812q104 -37 160 -168q45 -106 45 -235q0 -150 -58 -268q-37 -78 -37 -156 q0 -141 121 -307q84 -115 84 -133q0 -80 -81 -141.5t-76 -125.5q6 -102 73 -196q41 -53 121 -164q66 -96 66 -211q0 -166 -90 -377q-106 -248 -244 -268h-2949v422z" />
<glyph unicode="&#xaf;" />
<glyph unicode="&#xb0;" horiz-adv-x="10" d="M-23 -170h3644v-397h-3644v397z" />
<glyph unicode="&#xb1;" horiz-adv-x="724" d="M-594 1796v397h608q131 -68 310 -524q184 -471 184 -776q0 -78 -14 -133l-99 129q0 127 -123 436q-150 375 -315 471h-551z" />
<glyph unicode="&#xb4;" horiz-adv-x="1079" d="M-94 1038h1206l82 -526h-1210z" />
<glyph unicode="&#xb5;" horiz-adv-x="524" d="M41 797q0 801 262 1226q-6 -8 -6 -20q0 -16 20.5 -67.5t14.5 -67.5q-109 -326 -109 -887q0 -313 41 -594q55 -379 174 -557h2900v-397h-2980q-168 168 -254 649q-63 356 -63 715z" />
<glyph unicode="&#xb6;" horiz-adv-x="923" d="M2 1722q0 268 369 416q139 55 352 55h3090v-419h-3115q-375 0 -374 -166q0 -68 100 -181.5t100 -158.5q0 -12 -4 -27q-33 -109 -53.5 -159t-73.5 -146q-66 -119 -65 -178q0 -100 141 -242q78 -78 78 -164q0 -59 -35 -116q-18 -27 -80 -97q-84 -94 -84 -145 q0 -129 254 -129h3330v-422h-3369q-39 20 -176 57q-106 29 -143 80q-70 94 -88.5 150.5t-18.5 173.5q0 53 55.5 152.5t55.5 136.5q0 45 -49 102q-72 84 -82 100q-98 172 -99 279q0 76 37 141q123 221 172 381q6 20 6 41q0 72 -69 156q-33 39 -101 120q-61 106 -61 209z" />
<glyph unicode="&#xb7;" horiz-adv-x="2162" d="M106 473q0 993 353 1655h1364q276 -873 276 -1727q0 -492 -104 -901h-1721q-92 59 -137 463q-31 266 -31 510zM293 561q0 -399 98 -706h1514q18 231 18 456q0 309 -35 598q-72 586 -211 863h-1222q-162 -1096 -162 -1211zM670 940q0 176 159 363q125 145 312 262 q162 100 217 100q63 0 115 -43q29 -31 28 -100q1 -70 -26 -160q-180 -18 -433 -232q-119 -100 -165 -206q-25 -53 -39 -144q-8 -53 -39 -53q-72 0 -99 51q-10 20 -24 96q-6 33 -6 66zM887 444q2 61 37 82q12 8 122.5 -67.5t143.5 -75.5q16 0 24 12q4 6 -18 158 q-27 180 -27 305v309q80 55 101 56q23 0 57 -19q-4 -172 -2 -266q6 -223 61 -631l-12 -143q-27 -106 -121 -107q-338 76 -360 293q-8 80 -6 94z" />
<glyph unicode="&#xb8;" />
<glyph unicode="&#xba;" horiz-adv-x="1302" d="M55 586l13 157q61 6 139 21q10 8 4 217q-6 207 -23 252q-14 -39 -45 -180q-8 -8 -16 -9q-29 0 -29 76q10 78 58 250q43 158 43 191q12 14 45 14t41 -14l14 -787q10 0 154 35v-143q-215 -90 -398 -80zM287 25q0 29 14 96q35 158 348 782q338 670 432 670q80 0 68 -55 q-203 -295 -399 -689q-31 -66 -267 -565q-117 -248 -170 -282q-27 4 -26 43zM719 270q-12 106 121 416q135 322 219 336q14 -29 14 -64q0 -25 -2 -76t-2 -77q0 -135 16 -330q37 8 117 25q12 -24 12 -176q0 -14 -86 -43q0 -33 12.5 -106t12.5 -109q0 -35 -4 -62h-64 q-8 63 -16 129q-12 74 -35 123q-147 -53 -227 -53t-88 67zM827 414q50 -1 191 32q-27 166 -27 297q-33 -41 -91 -159.5t-73 -169.5z" />
<glyph unicode="&#xbb;" horiz-adv-x="661" d="M66 1188q16 170 69 299q78 186 209 186q182 0 252 -348q8 -39 16 -86q6 -25 19 -84q31 -150 31 -307q-1 -110 -15 -227q-20 -162 -88 -357q-92 -268 -197 -270q-115 -4 -141 123q-18 88 25 178q31 59 110 215q-57 31 -100 61q-129 92 -184 353q-23 102 -6 264zM266 1112 q10 -53 49 -104q45 -59 93 -62q4 0 22 4q39 27 39 82q0 18 -4 41q-39 145 -131 150q-45 2 -60.5 -32t-7.5 -79z" />
<glyph unicode="&#xbf;" horiz-adv-x="512" d="M125 152q-18 76 0 456q18 395 61 682q55 375 148 375q133 0 168 -121q-86 -338 -109 -710q-6 -160 -26 -576q-12 -258 -78 -301q-68 0 -96 31q-37 39 -68 164z" />
<glyph unicode="&#xc0;" horiz-adv-x="2263" d="M12 225q0 27 29 29q18 2 121.5 -9.5t120.5 -17.5q18 2 31.5 82t27.5 80q23 2 47 -29q37 -45 43 -49q27 -18 94 -78q14 12 60.5 67.5t52.5 70.5q23 -4 49.5 -45t30.5 -41q2 0 46 32.5t50 32.5q12 0 96 -66.5t86 -66.5t64.5 68.5t73.5 70.5q6 0 18 -18q18 -29 47 -66 q27 23 39 82q10 47 27 49q16 2 116 -77l103 -82l153 194q31 2 86 -209q47 51 75 94.5t30 43.5q8 2 113 -138q61 27 88 99q25 61 20 63q14 -14 16 -35q-2 27 -2 -90q16 0 70 -8q47 -6 70 -2q20 -12 20 -35q0 -10 -53 -74q-47 -55 -66 -73q53 -66 115 -94q43 -21 43 -41 q0 -4 -18 -29q-80 -6 -236 -100q4 -4 64 -31q53 -23 63 -45q23 -43 23 -74v-41q-4 -8 -35 -10q-61 -4 -72 -12q-2 -2 -2 -27v-76q-4 -33 -20 -33q-4 0 -57.5 54.5t-59.5 54.5q49 0 -55.5 -54.5t-133.5 -54.5q-47 0 -122.5 51.5t-69.5 55.5q-8 0 -42 -60.5t-46 -58.5 q-57 6 -108.5 52t-55.5 46q-2 0 -56.5 -45t-70.5 -45q-6 4 -20 4q-10 35 -19 88q-4 23 -18 23q-45 0 -144 -55q-80 -45 -123 -47q-41 -2 -69 32q-8 10 -43 72q-51 -31 -78 -61q-10 -10 -29.5 -51.5t-23.5 -41.5q-14 0 -54 54.5t-45 54.5q-88 -51 -217 -102q-20 -2 -20 16 q8 16 51 104q-121 33 -244 68q-14 31 -14 35q0 8 80 55q88 51 100 64q-14 16 -80 43q-51 20 -51 53q0 20 37 35q47 18 59 30q-43 43 -100 60q-41 12 -41 24q0 27 74 70q37 23 80 43q-188 68 -189 98zM111 213q16 -14 92 -43q57 -23 57 -51q0 -23 -37 -35q-59 -18 -104 -55 q31 -10 63 -35q43 -31 43 -55q0 -53 -73 -78q123 -57 122 -101q0 -29 -69 -59q-84 -37 -94 -47q51 -16 143 -49q35 -8 70 -15q45 -14 45 -43q0 -10 -52 -61q88 39 189 102q14 0 35.5 -47t33.5 -51q12 35 65.5 84t86.5 53q12 2 38 -53t60 -53q39 2 139.5 50t143.5 50 q33 2 39 -41q8 -61 12 -67q59 45 135 92q-37 0 40 -51.5t91 -51.5q18 0 59.5 61.5t51.5 61.5q-49 0 52.5 -60.5t125.5 -58.5q43 2 118 56.5t95 60.5q14 -12 88 -90q4 14 8 90q2 55 19 47l20 -12q20 -10 39 -10q14 0 29 10q-8 27 -36 58.5t-52 37.5q-106 23 -107 39 q0 25 39 49q94 61 209 90q-152 131 -141 154q41 37 104 113q-31 25 -86 14q-31 -6 -32 20v46q-23 -49 -82 -127q-41 63 -113 147q-8 -16 -64.5 -85t-62.5 -69l-64 215q-55 -57 -71 -77q-47 -57 -78 -111q-66 63 -107 98q-80 70 -106 74q-8 -27 -33 -78q-31 -63 -43 -63 q-4 0 -32.5 41t-38.5 49q-51 -47 -107 -113q-35 -41 -43 -41q-8 -2 -84 73t-78 75q-14 0 -53 -31q-45 -35 -51 -39q-14 20 -64 94q-10 -33 -127 -143q-63 57 -161 139q-18 -39 -35 -112q-8 -39 -23 -33q-70 31 -196 51zM279 -328q0 31 32 25q18 -4 140 -4q39 0 79 14 q55 18 56 47q0 53 -121 74q-6 0 -39 -6q-25 14 -25 45q84 78 97 153q2 12 -7.5 23.5t-21.5 11.5q-88 -37 -107 -129h-12q-10 10 -10 37q0 39 51 91t96 46t45 -82q0 -72 -67 -139q53 -2 107.5 -42t54.5 -91q0 -61 -82 -84q-51 -14 -156 -18q-86 -4 -92 -17q-18 47 -18 45z M561 31q0 12 37 49q88 66 100 65q23 0 23 -45q0 -23 -33 -82t-33 -62t29 -45t29 -52q2 -16 -11 -25q-14 0 -59 53v-41q-10 -6 -29 13q-6 61 -8 123q0 49 -4 49l-29 -29q-12 12 -12 29zM641 70q0 -41 2 -52q8 4 25.5 38t15.5 40q-2 2 -4 2q-16 0 -39 -28zM713 31q0 20 44 50 t66 30q39 0 45 -68q4 -41 -36.5 -114.5t-79.5 -73.5q-14 8 -19 16q-4 41 -12 104.5t-8 55.5zM743 20q6 -49 19 -110q23 18 51.5 64t28.5 69q0 20 -23 20q-10 0 -24 -4q-12 -10 -52 -39zM897 -168q0 111 94 254q18 29 64.5 58.5t79.5 29.5q35 0 34 -61q0 -18 -8 -54t-8 -55 q-6 -8 -18 -8q-23 0 -23 27q0 12 7 33.5t7 31.5t-16 10q-23 0 -58.5 -31.5t-47.5 -56.5q-59 -113 -60 -170q0 -78 72 -100q33 -10 123 -10q18 0 315 14q-18 20 -41 41l-2 -8q-2 -6 -8 -10q-10 0 -21.5 11t-11.5 21l6 72q4 72 2 76q0 6 -6 15t-6 15q0 43 96 43q59 0 60 -57 q0 -25 -42 -70t-42 -61t88 -86h166q-4 12 -4 21q0 18 22 28q41 20 53 31q-39 0 -96 6q-8 2 -10 16q-29 -94 -90 -94q-45 0 -45 105q0 47 30 135q10 2 17 0q10 -4 10 -33q0 -8 -10 -42t-10 -56q0 -47 8 -49q29 0 45 41q12 31 12 63q0 8 -8 18.5t-8 20.5q2 6 12 51 q35 -29 39 -106q6 23 31.5 76t40.5 61q6 4 12 4q12 -2 10 -39q-20 -35 -47 -110q131 -10 119 -64q-12 -51 -84 -84q86 0 149 -14q74 -6 88 -51l-4 -29q-10 -8 -16 -8q-4 0 -9 7t-10 7q-41 47 -210 49q-49 0 -201 -2l-170 -4q-41 0 -113 -6q-80 -8 -115 -8l-83 -2 q-59 -2 -104.5 43t-45.5 104zM1145 -209q0 14 14 119l15 104q18 10 24 0q8 -14 6 -43q-6 -63 15 -61q4 61 6 76q6 41 20 71q6 6 12 6q4 0 9.5 -6t5.5 -26q-27 -113 -27 -252q-8 -6 -16 -6t-15 6v80q-10 -6 -26 -9q0 -100 -12 -100q-31 0 -31 41zM1257 -154q0 41 15 105 q20 80 47 80q23 0 37 -64q12 -49 12 -84q0 -39 -20 -76q-25 -43 -60 -43q-31 0 -31 82zM1286 -154q2 -12 8 -30q39 19 39 78t-16 77q-31 -31 -31 -125zM1411 -35q0 -4 2 -28v-48q5 5 68 64q0 12 -2 18q-8 8 -33 4q-18 -4 -35 -10z" />
<glyph unicode="&#xc1;" horiz-adv-x="2117" d="M106 473q0 993 353 1655h1364q276 -873 276 -1727q0 -492 -104 -901h-1721q-92 59 -137 463q-31 266 -31 510zM293 561q0 -399 98 -706h1514q18 231 18 456q0 309 -35 598q-72 586 -211 863h-1222q-162 -1096 -162 -1211zM762 1239q0 147 82 264q90 131 231 131 q393 0 393 -444q0 -233 -32 -371q-51 -219 -195 -301q-92 -39 -186 -80q0 -29 8 -159q6 -115 12 -254h-145q-35 20 -96 516q-23 174 -46 350q-27 217 -26 348zM950 1022q0 -29 19 -176q123 10 213 78q98 71 125 186q-18 57 -79 109.5t-118 52.5q-82 0 -127 -103 q-33 -76 -33 -147z" />
<glyph unicode="&#xc2;" horiz-adv-x="2162" d="M106 473q0 993 353 1655h1364q276 -873 276 -1727q0 -492 -104 -901h-1721q-92 59 -137 463q-31 266 -31 510zM293 561q0 -399 98 -706h1514q18 231 18 456q0 309 -35 598q-72 586 -211 863h-1222q-162 -1096 -162 -1211zM621 1012q0 219 30 456q29 10 58 11q47 0 86 -29 q14 -27 14 -76q-2 -70 2 -82l545 -579q-43 324 -43 501q0 63 12 185q16 168 41 233q14 0 40 5t40 5q41 0 63 -38q0 -55 -8 -168t-8 -168q0 -145 18 -316q27 -250 95 -458q59 -185 59 -281q0 -141 -20 -217h-111q-82 111 -332 379q-295 317 -414 399q0 -106 23 -315t23 -314 q0 -86 -64 -86q-41 0 -82 21q-68 225 -67 932z" />
<glyph unicode="&#xc3;" horiz-adv-x="2263" d="M12 225q0 27 29 29q18 2 121.5 -9.5t120.5 -17.5q18 2 31.5 82t27.5 80q23 2 47 -29q37 -45 43 -49q27 -18 94 -78q14 12 60.5 67.5t52.5 70.5q23 -4 49.5 -45t30.5 -41q2 0 46 32.5t50 32.5q12 0 96 -66.5t86 -66.5t64.5 68.5t73.5 70.5q6 0 18 -18q18 -29 47 -66 q27 23 39 82q10 47 27 49q16 2 116 -77l103 -82l153 194q31 2 86 -209q47 51 75 94.5t30 43.5q8 2 113 -138q61 27 88 99q25 61 20 63q14 -14 16 -35q-2 27 -2 -90q16 0 70 -8q47 -6 70 -2q20 -12 20 -35q0 -10 -53 -74q-47 -55 -66 -73q53 -66 115 -94q43 -21 43 -41 q0 -4 -18 -29q-80 -6 -236 -100q4 -4 64 -31q53 -23 63 -45q23 -43 23 -74v-41q-4 -8 -35 -10q-61 -4 -72 -12q-2 -2 -2 -27v-76q-4 -33 -20 -33q-4 0 -57.5 54.5t-59.5 54.5q49 0 -55.5 -54.5t-133.5 -54.5q-47 0 -122.5 51.5t-69.5 55.5q-8 0 -42 -60.5t-46 -58.5 q-57 6 -108.5 52t-55.5 46q-2 0 -56.5 -45t-70.5 -45q-6 4 -20 4q-10 35 -19 88q-4 23 -18 23q-45 0 -144 -55q-80 -45 -123 -47q-41 -2 -69 32q-8 10 -43 72q-51 -31 -78 -61q-10 -10 -29.5 -51.5t-23.5 -41.5q-14 0 -54 54.5t-45 54.5q-88 -51 -217 -102q-20 -2 -20 16 q8 16 51 104q-121 33 -244 68q-14 31 -14 35q0 8 80 55q88 51 100 64q-14 16 -80 43q-51 20 -51 53q0 20 37 35q47 18 59 30q-43 43 -100 60q-41 12 -41 24q0 27 74 70q37 23 80 43q-188 68 -189 98zM111 213q16 -14 92 -43q57 -23 57 -51q0 -23 -37 -35q-59 -18 -104 -55 q31 -10 63 -35q43 -31 43 -55q0 -53 -73 -78q123 -57 122 -101q0 -29 -69 -59q-84 -37 -94 -47q51 -16 143 -49q35 -8 70 -15q45 -14 45 -43q0 -10 -52 -61q88 39 189 102q14 0 35.5 -47t33.5 -51q12 35 65.5 84t86.5 53q12 2 38 -53t60 -53q39 2 139.5 50t143.5 50 q33 2 39 -41q8 -61 12 -67q59 45 135 92q-37 0 40 -51.5t91 -51.5q18 0 59.5 61.5t51.5 61.5q-49 0 52.5 -60.5t125.5 -58.5q43 2 118 56.5t95 60.5q14 -12 88 -90q4 14 8 90q2 55 19 47l20 -12q20 -10 39 -10q14 0 29 10q-8 27 -36 58.5t-52 37.5q-106 23 -107 39 q0 25 39 49q94 61 209 90q-152 131 -141 154q41 37 104 113q-31 25 -86 14q-31 -6 -32 20v46q-23 -49 -82 -127q-41 63 -113 147q-8 -16 -64.5 -85t-62.5 -69l-64 215q-55 -57 -71 -77q-47 -57 -78 -111q-66 63 -107 98q-80 70 -106 74q-8 -27 -33 -78q-31 -63 -43 -63 q-4 0 -32.5 41t-38.5 49q-51 -47 -107 -113q-35 -41 -43 -41q-8 -2 -84 73t-78 75q-14 0 -53 -31q-45 -35 -51 -39q-14 20 -64 94q-10 -33 -127 -143q-63 57 -161 139q-18 -39 -35 -112q-8 -39 -23 -33q-70 31 -196 51zM289 -121q14 57 71 133q94 125 99 125q20 0 20 -22 q0 -10 -64.5 -97.5t-64.5 -95.5q-12 -8 -2 -8q35 0 92 27q14 63 49 176q14 4 21 0q6 -6 6 -23q0 16 -33 -147q16 4 49 4q38 0 50 -33q0 -6 -47 -12q-55 -8 -64 -10q-10 -20 -14 -111l-6 -109q-2 -20 -25 -12q-12 4 -12 19q-2 78 0 110q2 29 12 82v6q-90 -33 -100 -33 q-18 6 -37 21v10zM541 45q0 27 98 64q86 33 100 32q14 0 31 -16l2 -2q0 -55 -10 -90q8 0 22 -4q0 100 13 139q26 0 26 -43q0 -25 -5 -73t-5 -72q0 -82 -35 -82q-4 0 -6 2q-8 4 -8 20q12 25 12 47v17q-8 -4 -16 -4q-2 -37 -10 -78q-6 -16 -25 -2q-12 8 -12 24q0 70 22 156 q2 12 2 16q-12 -6 -55 -20q-8 -78 -29 -193q-6 -8 -12 -8q-8 0 -18 8q0 39 18 178q-25 -4 -76 -43q-4 0 -14 11.5t-10 15.5zM897 -168q0 111 94 254q18 29 64.5 58.5t79.5 29.5q35 0 34 -61q0 -18 -8 -54t-8 -55q-6 -8 -18 -8q-23 0 -23 27q0 12 7 33.5t7 31.5t-16 10 q-23 0 -58.5 -31.5t-47.5 -56.5q-59 -113 -60 -170q0 -78 72 -100q33 -10 123 -10q18 0 315 14q-18 20 -41 41l-2 -8q-2 -6 -8 -10q-10 0 -21.5 11t-11.5 21l6 72q4 72 2 76q0 6 -6 15t-6 15q0 43 96 43q59 0 60 -57q0 -25 -42 -70t-42 -61t88 -86h166q-4 12 -4 21 q0 18 22 28q41 20 53 31q-39 0 -96 6q-8 2 -10 16q-29 -94 -90 -94q-45 0 -45 105q0 47 30 135q10 2 17 0q10 -4 10 -33q0 -8 -10 -42t-10 -56q0 -47 8 -49q29 0 45 41q12 31 12 63q0 8 -8 18.5t-8 20.5q2 6 12 51q35 -29 39 -106q6 23 31.5 76t40.5 61q6 4 12 4 q12 -2 10 -39q-20 -35 -47 -110q131 -10 119 -64q-12 -51 -84 -84q86 0 149 -14q74 -6 88 -51l-4 -29q-10 -8 -16 -8q-4 0 -9 7t-10 7q-41 47 -210 49q-49 0 -201 -2l-170 -4q-41 0 -113 -6q-80 -8 -115 -8l-83 -2q-59 -2 -104.5 43t-45.5 104zM1145 -209q0 14 14 119 l15 104q18 10 24 0q8 -14 6 -43q-6 -63 15 -61q4 61 6 76q6 41 20 71q6 6 12 6q4 0 9.5 -6t5.5 -26q-27 -113 -27 -252q-8 -6 -16 -6t-15 6v80q-10 -6 -26 -9q0 -100 -12 -100q-31 0 -31 41zM1257 -154q0 41 15 105q20 80 47 80q23 0 37 -64q12 -49 12 -84q0 -39 -20 -76 q-25 -43 -60 -43q-31 0 -31 82zM1286 -154q2 -12 8 -30q39 19 39 78t-16 77q-31 -31 -31 -125zM1411 -35q0 -4 2 -28v-48q5 5 68 64q0 12 -2 18q-8 8 -33 4q-18 -4 -35 -10z" />
<glyph unicode="&#xc4;" horiz-adv-x="641" d="M6 532q0 770 408 1661h3199v-419h-3199q-205 -381 -205 -955q0 -289 53 -575q45 -248 107 -379h3362v-422h-3452q-272 434 -273 1089z" />
<glyph unicode="&#xc5;" horiz-adv-x="10" d="M-23 1774v419h3064v-419h-3064zM-20 -135h3061v-422h-3061v422z" />
<glyph unicode="&#xc6;" horiz-adv-x="1581" d="M55 793q0 209 117 444q111 225 274 369q199 174 422 174q285 0 451 -269q104 -170 186 -516q18 -78 19 -184q0 -301 -127 -510q-168 -279 -518 -278q-39 0 -68 2q-332 23 -509 186.5t-239 493.5q-8 43 -8 88zM201 795q0 -25 2 -52q80 -174 260 -266q162 -84 366 -84 q553 0 553 414q0 74 -20 162q-43 186 -188.5 294.5t-339.5 108.5q-231 0 -422 -153q-211 -170 -211 -424zM489 1026q0 102 98.5 190.5t200.5 88.5q129 0 175 -74q27 -45 26 -144q0 -86 -57 -186q-51 -92 -125 -156q0 -20 117.5 -49.5t119.5 -36.5v-167q-49 4 -153 38 q-117 37 -162 45q2 -12 2 -22q0 -33 -33 -43q-10 -2 -61 -6q-51 180 -55 381q-92 2 -93 141zM639 995q29 -18 51 -96q10 -37 21 -74q37 45 110 138q60 75 60 124q0 25 -38 36.5t-65 4.5q-51 -10 -84 -49q-14 -16 -55 -84z" />
<glyph unicode="&#xc7;" horiz-adv-x="569" d="M-2353 -135h2666q59 76 60 528q0 209 -17 453q-47 702 -194 928h-2462v419h2562q250 -294 270 -1347q6 -362 -20 -725q-43 -557 -156 -678h-2709v422z" />
<glyph unicode="&#xc8;" horiz-adv-x="2117" d="M106 473q0 993 353 1655h1364q276 -873 276 -1727q0 -492 -104 -901h-1721q-92 59 -137 463q-31 266 -31 510zM293 561q0 -399 98 -706h1514q18 231 18 456q0 309 -35 598q-72 586 -211 863h-1222q-162 -1096 -162 -1211zM633 1118q0 213 164 387q154 164 313 164 q207 0 276 -145q43 -90 44 -283q0 -178 -103 -391q-84 -174 -188 -289q0 -41 186 -100.5t191 -71.5v-332q-68 8 -232 74q-186 74 -268 92q4 -25 4 -45q0 -74 -57 -90l-95 -8q-86 358 -90 760q-145 0 -145 278zM870 1057q57 -49 78 -131q8 -35 17 -138q4 -66 22 -71 q152 238 164 256q104 180 104 268q0 39 -42 61.5t-85 22.5q-18 0 -32 -4q-94 -27 -144 -100z" />
<glyph unicode="&#xc9;" horiz-adv-x="1937" d="M-6 780q-2 74 12 115q31 37 154 98.5t168 61.5q41 0 51 -58l6 -63q6 -82 -8 -107q-18 -31 -90 -65q-106 -49 -178 -103l4 -174q39 -6 135 36t117 42q47 1 51 -112q2 -92 -13 -111q-23 -14 -137 -45q-106 -29 -125 -49q8 -250 -18 -250q-57 0 -72 57q-2 8 -24 228 q0 4 -15 219q-16 227 -18 280zM528 668q0 84 11 137q27 16 53 16q29 0 49 -18q-4 -148 55 -637q16 -127 -20 -139q-18 -16 -41 -17q-23 0 -47 23q-4 88 -33 317q-27 201 -27 318zM819 539q0 102 17 245q23 8 41 9q31 0 55 -19q8 -14 8 -41q0 -37 2 -45q98 -100 240 -262 q-14 150 -15 217q0 23 9 96q8 96 22 131q8 0 25.5 2t27.5 2q29 0 45 -28q0 -29 -5 -89.5t-5 -88.5q0 -213 60 -398q28 -92 28 -145q0 -70 -12 -125h-76q-35 49 -151 180q-131 145 -203 205q2 -47 11 -146.5t9 -150.5q0 -20 -4 -33q-8 -20 -43 -20q-27 0 -49 12 q-37 121 -37 492zM1487 551q-4 98 131 211q119 100 201 110q25 4 37 -14t10 -57q0 -6 -2 -37q-4 -55 -11 -70q-12 -29 -51 -47q-49 -20 -84 -45q-125 -90 -125 -121q0 -8 15 -10q190 80 196 80q33 0 39 -47q2 -10 2 -66q2 -86 -45 -114l-168 -70q0 -27 -2 -27q119 4 170 4 q100 0 106.5 -8t6.5 -35q0 -20 -4 -53q-6 -43 -6 -53q-4 -45 -41 -57q-8 -2 -58 -2h-258q-31 63 -59 528z" />
<glyph unicode="&#xca;" horiz-adv-x="2117" d="M106 473q0 993 353 1655h1364q276 -873 276 -1727q0 -492 -104 -901h-1721q-92 59 -137 463q-31 266 -31 510zM293 561q0 -399 98 -706h1514q18 231 18 456q0 309 -35 598q-72 586 -211 863h-1222q-162 -1096 -162 -1211zM739 831q0 532 238 744q66 57 90 57 q137 0 264 -215q142 -240 162 -602q4 -72 4 -141q0 -670 -340 -670q-250 0 -346 258q-51 137 -68 436q-4 74 -4 133zM891 782q0 -23 4 -49q33 -209 139 -301q57 -49 103 -49q113 0 166 139q38 100 32 211q-4 78 -43 203q-49 156 -100 156q-8 0 -16 -9q-41 -82 -111 -82 q-45 0 -92 33q-33 0 -60 -110q-23 -92 -22 -142z" />
<glyph unicode="&#xcb;" horiz-adv-x="2117" d="M106 473q0 993 353 1655h1364q276 -873 276 -1727q0 -492 -104 -901h-1721q-92 59 -137 463q-31 266 -31 510zM293 561q0 -399 98 -706h1514q18 231 18 456q0 309 -35 598q-72 586 -211 863h-1222q-162 -1096 -162 -1211zM684 825q0 532 242 750q63 57 90 57 q137 0 264 -215q141 -240 162 -602q14 -250 -23 -438q94 -134 213 -236l-186 -123q-63 55 -119 113q-86 -127 -227 -127q-250 0 -344 258q-51 137 -68 436q-4 74 -4 127zM836 778q0 -111 65 -241q76 -154 178 -154q37 0 62 8q-39 72 -105 203l189 121l49 -99q8 64 6 117 q-2 78 -41 203q-47 156 -100 156q-8 0 -17 -9q-43 -82 -112 -82q-43 0 -88 33q-35 0 -64 -112q-23 -92 -22 -144z" />
<glyph unicode="&#xcc;" horiz-adv-x="2117" d="M106 473q0 993 353 1655h1364q276 -873 276 -1727q0 -492 -104 -901h-1721q-92 59 -137 463q-31 266 -31 510zM293 561q0 -399 98 -706h1514q18 231 18 456q0 309 -35 598q-72 586 -211 863h-1222q-162 -1096 -162 -1211zM715 1071q8 184 12 229q12 123 47 136 q43 27 90 26q37 0 66 -14q-8 -47 -8 -105q0 -186 63.5 -388.5t167.5 -360.5q88 551 211 1030q12 12 53 12q100 1 88 -75l-233 -1450q-43 -33 -125 -103q-123 94 -279 461q-162 383 -153 602z" />
<glyph unicode="&#xcd;" horiz-adv-x="2117" d="M106 473q0 993 353 1655h1364q276 -873 276 -1727q0 -492 -104 -901h-1721q-92 59 -137 463q-31 266 -31 510zM293 561q0 -399 98 -706h1514q18 231 18 456q0 309 -35 598q-72 586 -211 863h-1222q-162 -1096 -162 -1211zM627 969q0 387 405 596q127 66 182 65 q33 0 72 -62.5t39 -103.5q0 -31 -25 -182q-129 0 -260 -68q-154 -76 -172 -190q-6 -33 97 -33h28q27 2 45 2h86q254 0 377 -86q147 -106 135 -352q-12 -281 -102 -387q-100 -125 -367 -125h-336q-2 10 19 201l18 194q51 47 195 76q25 0 54.5 -51t96.5 -51q166 0 187 45 q12 74 -189 121q-150 35 -254 34q-55 0 -110 -6q-129 29 -164 72q-57 70 -57 291z" />
<glyph unicode="&#xce;" horiz-adv-x="2162" d="M106 473q0 993 353 1655h1364q276 -873 276 -1727q0 -492 -104 -901h-1721q-92 59 -137 463q-31 266 -31 510zM293 561q0 -399 98 -706h1514q18 231 18 456q0 309 -35 598q-72 586 -211 863h-1222q-162 -1096 -162 -1211zM670 1278q281 158 334 186q205 109 339 152 q63 20 166 22q35 -311 35 -385q0 -49 -10 -49q-92 10 -358 -141l55 -1020q-47 -47 -117 -47q-31 0 -49 -10l-78 1007q-252 -174 -289 -174q-4 0 -4 2z" />
<glyph unicode="&#xcf;" horiz-adv-x="2117" d="M106 473q0 993 353 1655h1364q276 -873 276 -1727q0 -492 -104 -901h-1721q-92 59 -137 463q-31 266 -31 510zM293 561q0 -399 98 -706h1514q18 231 18 456q0 309 -35 598q-72 586 -211 863h-1222q-162 -1096 -162 -1211zM666 1126q0 78 10 226q10 141 6 196h168 q0 -70 -11.5 -211t-11.5 -211q0 -330 37 -460q74 -256 316 -271q164 -10 215 78q41 70 41 268q0 422 -256 463l39 355q6 4 73 4q94 0 181 -211q108 -265 108 -695q0 -676 -289 -659q-266 14 -409 61q-133 240 -183 531q-35 209 -34 536z" />
<glyph unicode="&#xd1;" horiz-adv-x="581" d="M66 1679q12 8 96 37l39 -745q53 41 67 47q33 16 82 16q82 0 144 -102q53 -88 55 -176q4 -381 -47 -547q-57 -186 -262 -356h-78zM227 494l13 -242q123 84 178 303q6 80 -37 98q-88 -25 -154 -159z" />
<glyph unicode="&#xd2;" horiz-adv-x="2117" d="M106 473q0 993 353 1655h1364q276 -873 276 -1727q0 -492 -104 -901h-1721q-92 59 -137 463q-31 266 -31 510zM293 561q0 -399 98 -706h1514q18 231 18 456q0 309 -35 598q-72 586 -211 863h-1222q-162 -1096 -162 -1211zM571 1044q0 102 25 207q20 35 61 107 q156 254 326 254q240 0 240 -281q0 -231 -101 -457q-117 -262 -139 -425q27 -2 57 -3q68 0 200 11.5t200 11.5q253 0 243 -160q-25 -121 -24 -223q-242 -6 -606 -33q-84 -6 -129 -6q-125 0 -160 86q-18 47 -19 201q0 150 116 460t116 410q0 29 -16 29q-82 0 -158 -146 q-59 -111 -80 -215q-35 -29 -70 -28q-33 0 -57 28q-25 74 -25 172z" />
<glyph unicode="&#xd3;" horiz-adv-x="2484" d="M106 473q0 993 353 1655h1646q279 -875 279 -1729q0 -487 -105 -899h-2005q-92 59 -137 463q-31 266 -31 510zM293 561q0 -399 98 -706h1796q20 229 21 452q0 299 -37 602q-72 598 -211 863h-1505q-162 -1096 -162 -1211zM606 887q0 96 15 305q18 279 45 385h153 q-14 -205 -14 -381q0 -344 53 -545q41 -156 88 -168q51 45 51 217v164q0 207 27 389q39 82 88 82q25 0 59 -24q23 -20 48 -39q-8 -113 -9 -209q0 -596 297 -596q88 0 142.5 63.5t54.5 153.5q0 260 -268 475q0 262 90 453q193 -123 291 -375q81 -215 81 -475q0 -299 -81 -498 q-102 -250 -310 -250q-121 0 -227 84q-39 31 -141 148q-66 -203 -189 -203q-154 0 -256 305q-88 262 -88 539z" />
<glyph unicode="&#xd4;" horiz-adv-x="2117" d="M106 473q0 993 353 1655h1364q276 -873 276 -1727q0 -492 -104 -901h-1721q-92 59 -137 463q-31 266 -31 510zM293 561q0 -399 98 -706h1514q18 231 18 456q0 309 -35 598q-72 586 -211 863h-1222q-162 -1096 -162 -1211zM594 1202q0 233 94 344q23 0 488 -549 q164 395 163 492q0 14 -4 24l215 103q0 -186 -71 -402q-41 -125 -160 -389q256 -323 289 -434q0 -274 -58 -350h-96q-70 109 -299 395q-47 -147 -61 -264q-141 -145 -211 -145q-14 0 -27 8q0 150 160 571q-98 117 -256 307q-152 182 -152 197q-14 18 -14 92z" />
<glyph unicode="&#xd5;" horiz-adv-x="2263" d="M12 225q0 27 29 29q18 2 121.5 -9.5t120.5 -17.5q18 2 31.5 82t27.5 80q23 2 47 -29q37 -45 43 -49q27 -18 94 -78q14 12 60.5 67.5t52.5 70.5q23 -4 49.5 -45t30.5 -41q2 0 46 32.5t50 32.5q12 0 96 -66.5t86 -66.5t64.5 68.5t73.5 70.5q6 0 18 -18q18 -29 47 -66 q27 23 39 82q10 47 27 49q16 2 116 -77l103 -82l153 194q31 2 86 -209q47 51 75 94.5t30 43.5q8 2 113 -138q61 27 88 99q25 61 20 63q14 -14 16 -35q-2 27 -2 -90q16 0 70 -8q47 -6 70 -2q20 -12 20 -35q0 -10 -53 -74q-47 -55 -66 -73q53 -66 115 -94q43 -21 43 -41 q0 -4 -18 -29q-80 -6 -236 -100q4 -4 64 -31q53 -23 63 -45q23 -43 23 -74v-41q-4 -8 -35 -10q-61 -4 -72 -12q-2 -2 -2 -27v-76q-4 -33 -20 -33q-4 0 -57.5 54.5t-59.5 54.5q49 0 -55.5 -54.5t-133.5 -54.5q-47 0 -122.5 51.5t-69.5 55.5q-8 0 -42 -60.5t-46 -58.5 q-57 6 -108.5 52t-55.5 46q-2 0 -56.5 -45t-70.5 -45q-6 4 -20 4q-10 35 -19 88q-4 23 -18 23q-45 0 -144 -55q-80 -45 -123 -47q-41 -2 -69 32q-8 10 -43 72q-51 -31 -78 -61q-10 -10 -29.5 -51.5t-23.5 -41.5q-14 0 -54 54.5t-45 54.5q-88 -51 -217 -102q-20 -2 -20 16 q8 16 51 104q-121 33 -244 68q-14 31 -14 35q0 8 80 55q88 51 100 64q-14 16 -80 43q-51 20 -51 53q0 20 37 35q47 18 59 30q-43 43 -100 60q-41 12 -41 24q0 27 74 70q37 23 80 43q-188 68 -189 98zM111 213q16 -14 92 -43q57 -23 57 -51q0 -23 -37 -35q-59 -18 -104 -55 q31 -10 63 -35q43 -31 43 -55q0 -53 -73 -78q123 -57 122 -101q0 -29 -69 -59q-84 -37 -94 -47q51 -16 143 -49q35 -8 70 -15q45 -14 45 -43q0 -10 -52 -61q88 39 189 102q14 0 35.5 -47t33.5 -51q12 35 65.5 84t86.5 53q12 2 38 -53t60 -53q39 2 139.5 50t143.5 50 q33 2 39 -41q8 -61 12 -67q59 45 135 92q-37 0 40 -51.5t91 -51.5q18 0 59.5 61.5t51.5 61.5q-49 0 52.5 -60.5t125.5 -58.5q43 2 118 56.5t95 60.5q14 -12 88 -90q4 14 8 90q2 55 19 47l20 -12q20 -10 39 -10q14 0 29 10q-8 27 -36 58.5t-52 37.5q-106 23 -107 39 q0 25 39 49q94 61 209 90q-152 131 -141 154q41 37 104 113q-31 25 -86 14q-31 -6 -32 20v46q-23 -49 -82 -127q-41 63 -113 147q-8 -16 -64.5 -85t-62.5 -69l-64 215q-55 -57 -71 -77q-47 -57 -78 -111q-66 63 -107 98q-80 70 -106 74q-8 -27 -33 -78q-31 -63 -43 -63 q-4 0 -32.5 41t-38.5 49q-51 -47 -107 -113q-35 -41 -43 -41q-8 -2 -84 73t-78 75q-14 0 -53 -31q-45 -35 -51 -39q-14 20 -64 94q-10 -33 -127 -143q-63 57 -161 139q-18 -39 -35 -112q-8 -39 -23 -33q-70 31 -196 51zM340 -78q0 41 49 111.5t88 70.5q47 0 43 -77 q-4 -92 -102 -287q145 0 180 -33q4 -6 4 -12q0 -9 -18 -21q-6 -4 -23 0q-29 6 -65 9q-86 4 -123 -15q-29 0 -33 13v18q20 31 88 151q33 59 53 146q8 33 0 47l-8 -2q-59 -33 -111 -152q-23 0 -22 33zM547 -61q0 63 39 102q23 0 22 -23q0 -8 -4 -16q14 -27 35 -47q-2 39 -2 72 q0 102 25 139q24 0 24 -37q0 -12 -6 -35.5t-6 -36.5q0 -18 -2 -127q0 -45 -13 -41q-27 -4 -43 23q-23 37 -30 41q-2 -14 -2 -62q-10 -8 -19 -8q-8 0 -11 7.5t-5 23.5t-2 25zM686 49q51 55 76 55q47 1 47 -67t-47 -121q-29 -41 -37 -41l-20 4q0 29 -9.5 85t-9.5 85zM717 33 q0 -45 12 -90q35 35 49 98q4 18 -6 18q-47 0 -55 -26zM897 -168q0 111 94 254q18 29 64.5 58.5t79.5 29.5q35 0 34 -61q0 -18 -8 -54t-8 -55q-6 -8 -18 -8q-23 0 -23 27q0 12 7 33.5t7 31.5t-16 10q-23 0 -58.5 -31.5t-47.5 -56.5q-59 -113 -60 -170q0 -78 72 -100 q33 -10 123 -10q18 0 315 14q-18 20 -41 41l-2 -8q-2 -6 -8 -10q-10 0 -21.5 11t-11.5 21l6 72q4 72 2 76q0 6 -6 15t-6 15q0 43 96 43q59 0 60 -57q0 -25 -42 -70t-42 -61t88 -86h166q-4 12 -4 21q0 18 22 28q41 20 53 31q-39 0 -96 6q-8 2 -10 16q-29 -94 -90 -94 q-45 0 -45 105q0 47 30 135q10 2 17 0q10 -4 10 -33q0 -8 -10 -42t-10 -56q0 -47 8 -49q29 0 45 41q12 31 12 63q0 8 -8 18.5t-8 20.5q2 6 12 51q35 -29 39 -106q6 23 31.5 76t40.5 61q6 4 12 4q12 -2 10 -39q-20 -35 -47 -110q131 -10 119 -64q-12 -51 -84 -84 q86 0 149 -14q74 -6 88 -51l-4 -29q-10 -8 -16 -8q-4 0 -9 7t-10 7q-41 47 -210 49q-49 0 -201 -2l-170 -4q-41 0 -113 -6q-80 -8 -115 -8l-83 -2q-59 -2 -104.5 43t-45.5 104zM1145 -209q0 14 14 119l15 104q18 10 24 0q8 -14 6 -43q-6 -63 15 -61q4 61 6 76q6 41 20 71 q6 6 12 6q4 0 9.5 -6t5.5 -26q-27 -113 -27 -252q-8 -6 -16 -6t-15 6v80q-10 -6 -26 -9q0 -100 -12 -100q-31 0 -31 41zM1257 -154q0 41 15 105q20 80 47 80q23 0 37 -64q12 -49 12 -84q0 -39 -20 -76q-25 -43 -60 -43q-31 0 -31 82zM1286 -154q2 -12 8 -30q39 19 39 78 t-16 77q-31 -31 -31 -125zM1411 -35q0 -4 2 -28v-48q5 5 68 64q0 12 -2 18q-8 8 -33 4q-18 -4 -35 -10z" />
<glyph unicode="&#xd6;" horiz-adv-x="671" d="M23 940q0 444 165 782q207 418 600 471h2911v-397h-2839q-240 -158 -366 -506q-102 -276 -103 -598q0 -90 8 -182q39 -465 273 -875q29 -49 67 -112q-358 168 -551 602q-166 371 -165 815z" />
<glyph unicode="&#xd8;" horiz-adv-x="524" d="M33 559q0 412 86 858q113 584 313 776h1481v-397h-1421q-135 -188 -216 -622q-72 -395 -71 -838q0 -416 67 -658q4 -14 -18.5 -67t-22.5 -70q0 -10 5 -18q-203 360 -203 1036z" />
<glyph unicode="&#xd9;" horiz-adv-x="2590" d="M299 383q0 709 262 1753h1456q324 -899 324 -1843q0 -385 -51 -791h-1811q-104 55 -151 414q-29 227 -29 467zM446 422q0 -436 101 -561h1673q10 459 -51 973q-74 602 -215 944h-1360l-76 -459q-72 -434 -72 -897zM670 473q0 27 29.5 82t50.5 76q8 6 65 6h57 q35 -6 33 -35q0 -25 -24 -78q-29 -63 -60 -78q-23 -4 -114 -4q-39 0 -37 31zM784 -74q0 104 127 361q8 20 179 336q-45 6 -78 22q-100 49 -148 291q-10 53 -10 106q0 289 287 441q92 49 135 49q31 0 78 -57.5t53 -92.5q10 -59 6 -163q-111 0 -219 -60q-129 -72 -121 -174 q-2 -25 57 -29q2 0 148 2q432 766 530 766q88 0 88 -71q0 -15 -6 -33q-223 -311 -430 -674q313 -51 361 -381q16 -113 16 -186q0 -162 -86 -223q-72 -53 -242 -54h-303q-10 49 -10 179q0 113 21 153q25 51 118 94q23 0 57.5 -47t96.5 -47q150 0 158 41q0 43 -86 86 q-117 57 -285 51l-268 -506q-113 -207 -170 -237q-53 0 -54 57zM1647 989q-2 4 0 15q2 12 2 18q0 23 30 82q27 53 47 74q8 6 66 6q53 0 68 -2q26 -4 22 -31q0 -37 -27 -88q-27 -57 -57 -68q-57 -10 -141 -10q-8 0 -10 4z" />
<glyph unicode="&#xda;" horiz-adv-x="2117" d="M106 473q0 993 353 1655h1364q276 -873 276 -1727q0 -492 -104 -901h-1721q-92 59 -137 463q-31 266 -31 510zM293 561q0 -399 98 -706h1514q18 231 18 456q0 309 -35 598q-72 586 -211 863h-1222q-162 -1096 -162 -1211z" />
<glyph unicode="&#xdb;" horiz-adv-x="2492" d="M231 461q0 1030 338 1679h1438q287 -889 287 -1722q0 -496 -109 -914h-1794q-90 55 -133 455q-27 256 -27 502zM399 530q0 -344 45 -667h1682q23 223 22 444q0 428 -88 887q-8 43 -135 586h-1374q-152 -580 -152 -1250zM496 774l231 39q27 184 150.5 349t296.5 233 q-6 115 -19 313l78 16q8 -182 18 -315q72 23 140 23q188 0 299 -144q102 -133 96 -325l149 28l39 -123l-207 -37q-45 -168 -171 -313t-285 -205q8 -135 20 -389l-76 -10l-22 383q-199 0 -336 94q-152 104 -174 293l-180 -41zM1090 1020q0 -61 6 -152q36 7 104 17 q-10 221 -20 383q-90 -41 -90 -248zM1104 737q4 -147 8 -182q18 -137 84 -137q13 0 29 4q-4 111 -17 336q-39 -8 -104 -21zM1257 1280q6 -131 23 -389q49 16 104 16q-4 154 -14 217q-29 156 -113 156zM1286 760q12 -209 17 -320q57 37 77 84q16 39 17 117q0 31 -4 133 q-39 -4 -107 -14z" />
<glyph unicode="&#xdc;" horiz-adv-x="10" d="M-23 1796v397h3644v-397h-3644z" />
<glyph unicode="&#xdf;" horiz-adv-x="10" d="M-23 1774v419h3064v-419h-3064zM-20 -135h3061v-422h-3061v422z" />
<glyph unicode="&#xe0;" horiz-adv-x="526" d="M18 1806q12 6 39 2q31 -4 43 -2l37 -694q25 27 125 74q82 39 137 55l86 -1651q-18 -12 -46.5 -19t-37.5 -11l-47 901q-12 -35 -67 -84q-68 -59 -135 -60q-29 0 -58 13zM154 795l8 -160q129 24 180 92q0 131 -12 180q-111 -31 -176 -112z" />
<glyph unicode="&#xe1;" horiz-adv-x="681" d="M-2253 1796v397h2220q367 -41 557 -462q147 -332 148 -754q0 -449 -164 -827q-189 -434 -541 -627q12 12 13 35q0 18 -10.5 55t-10.5 55q0 16 8 29q326 455 326 1040q0 295 -90 570q-102 315 -293 489h-2163z" />
<glyph unicode="&#xe2;" horiz-adv-x="1173" d="M33 268q0 123 75.5 239t188.5 150q37 12 74 13q84 0 161 -64l-40 1137q23 -10 75 -37q66 -55 197 -170q303 -272 317 -725q12 -354 -161 -649q-70 4 -70 33q0 6 4 14q43 66 86 164q25 55 35 110q14 76 18 232q4 141 -176 301q-111 82 -221 166l20 -754q4 -156 -84 -281 q-96 -141 -245 -141q-106 0 -180 78t-74 184z" />
<glyph unicode="&#xe3;" horiz-adv-x="1826" d="M43 317q-6 123 54.5 255.5t161.5 203t212 74.5q96 2 188 -62l-94 883l94 121l115 -1235q12 -123 -55 -250q-100 -188 -281 -268q-66 -29 -119 -29q-119 0 -196 96q-74 88 -80 211zM893 707q55 127 74 159q45 78 434 78q193 1 285 -22q0 -96 -54 -179q-33 -51 -358 -51 q-174 0 -381 15zM971 350q53 123 78 160q59 88 139 88q68 0 137 2q145 4 164 4q92 -2 182 -10q27 0 62 -6q22 -10 36 -51q-27 -109 -57 -150q-33 -55 -336 -55q-182 0 -405 18z" />
<glyph unicode="&#xe4;" horiz-adv-x="1167" d="M33 262q0 137 94 260q100 133 233 133q82 0 160 -61l-39 1112q47 4 68 -14q68 -55 199 -166q305 -264 323 -744q2 -39 -37 -155l33 -125q16 -79 18 -142q4 -154 -43 -231q-16 -57 -57 -57q-14 0 -29 8q31 82 31 182q0 186 -266 371q-41 29 -125 86l8 -299 q4 -152 -80 -277q-94 -137 -241 -137q-106 0 -178 75t-72 181zM561 1311l14 -70q0 -2 -5 -2t-5 -2l6 -4q66 -57 199 -174q135 -123 209 -281q4 27 4 51q0 135 -156 281q-66 61 -266 201z" />
<glyph unicode="&#xe5;" horiz-adv-x="913" d="M57 317q-6 123 54.5 255.5t162 203t213.5 74.5q96 2 189 -62l-96 883l96 121l112 -1235q10 -123 -55 -250q-96 -186 -280 -268q-63 -29 -119 -29q-119 0 -197 96q-74 88 -80 211z" />
<glyph unicode="&#xe6;" horiz-adv-x="1302" d="M66 1106q-14 72 10 188q49 229 200 230q90 0 91 -142q0 -92 -25 -159q-12 -31 -66 -136q29 6 56 7q149 0 149 -211q0 -102 -67 -232q-78 -147 -170 -147q-94 0 -94 129q0 74 65 127q39 -18 39 -51q0 -8 -4 -19q41 12 96 82t55 111t-90 41q-49 0 -96 -33q-12 -10 -74 -64 q-37 0 -41 47v123q178 260 179 324q0 20 -21 18q-63 -8 -98 -94l-41 -139q-14 -14 -27 -14q-12 0 -26 14zM287 25q0 29 14 96q35 158 348 782q338 670 432 670q80 0 68 -55q-203 -295 -399 -689q-31 -66 -267 -565q-117 -248 -170 -282q-27 4 -26 43zM719 270 q-12 106 121 416q135 322 219 336q14 -29 14 -64q0 -25 -2 -76t-2 -77q0 -135 16 -330q37 8 117 25q12 -24 12 -176q0 -14 -86 -43q0 -33 12.5 -106t12.5 -109q0 -35 -4 -62h-64q-8 63 -16 129q-12 74 -35 123q-147 -53 -227 -53t-88 67zM827 414q50 -1 191 32 q-27 166 -27 297q-33 -41 -91 -159.5t-73 -169.5z" />
<glyph unicode="&#xe7;" horiz-adv-x="819" d="M14 213q0 63 35 143q35 74 82 123q205 213 418 213q74 0 127 -47l2 1122l92 103l-4 -1378q-8 -90 -49 -160q0 2 4 8q-63 -113 -205 -201q-195 -121 -332 -121q-78 0 -124 57.5t-46 137.5zM248 281q0 -131 67 -131q82 0 140.5 65.5t58.5 149.5q0 51 -20 108q-25 74 -68 74 q-86 0 -123 -60q-55 -88 -55 -206z" />
<glyph unicode="&#xe8;" horiz-adv-x="10" d="M-23 1774v419h1225v-419h-1225zM-20 -135h1222v-422h-1222v422z" />
<glyph unicode="&#xe9;" horiz-adv-x="837" d="M20 195q0 172 187 294q180 119 366 119q143 0 211 -90q41 -59 31 -137q-16 -129 -72 -186q-82 -84 -233 -140q-143 -51 -270 -51q-219 0 -220 191zM258 233q0 -84 50 -120.5t132 -14.5q123 33 123 174q0 51 -14 103q-20 68 -56 84t-65 16q-72 0 -115 -76l-53 -127 q-2 -18 -2 -39z" />
<glyph unicode="&#xea;" />
<glyph unicode="&#xeb;" horiz-adv-x="385" d="M43 1165q0 49 16 97q0 12 76 139l285 217q-33 -63 -64 -109q-31 -70 -32 -129q-2 -55 22 -108q2 -4 51 -78l-282 -219q-33 49 -41 61q-31 53 -31 129z" />
<glyph unicode="&#xec;" horiz-adv-x="747" d="M57 1188q0 117 58 203l282 217q-57 -72 -57 -201q0 -115 29 -213l-285 -219q-10 66 -21 108q-6 55 -6 105zM410 1245q0 109 67 205l283 217q-68 -96 -68 -203q0 -80 25 -135q10 -18 57 -108l-282 -215q-82 135 -82 239z" />
<glyph unicode="&#xed;" horiz-adv-x="385" d="M14 1337l283 219q92 0 123 -43q25 -35 29 -133q2 -41 -15.5 -78.5t-36.5 -74.5l-282 -219l10 22q16 41 31 74q2 4 10 61q0 94 -30 131t-122 41z" />
<glyph unicode="&#xee;" horiz-adv-x="747" d="M57 1358l283 217q37 -39 61 -96q15 -60 19 -136q2 -35 -19 -94q0 -4 -32 -82l-285 -217q12 29 27 58q25 76 24 116q2 154 -78 234zM391 971q49 72 60 92q18 43 18 111q0 80 -43 223l285 217q10 -41 28 -117q5 -32 15 -106q0 -104 -82 -203z" />
<glyph unicode="&#xef;" />
<glyph unicode="&#xf1;" horiz-adv-x="774" d="M8 207q0 498 287 989q307 528 782 731q-633 -752 -633 -1433q0 -451 279 -664h1550v-397h-1722q-281 39 -422 272q-121 199 -121 502z" />
<glyph unicode="&#xf2;" horiz-adv-x="757" d="M-307 1927q481 -236 786 -778q279 -496 279 -989q0 -285 -105 -471q-127 -225 -387 -256h-557v397h402q203 229 202 619q0 344 -172 704q-154 319 -413 600q-16 18 -17 57v27q2 16 2 25q0 45 -20 65z" />
<glyph unicode="&#xf3;" horiz-adv-x="10" d="M-23 -170h1010v-397h-1010v397z" />
<glyph unicode="&#xf4;" horiz-adv-x="1585" d="M84 1331q199 113 211 119q133 72 217 98q39 12 104 15q23 -184 23 -246q0 -31 -6 -31q-59 6 -230 -90l37 -647q-27 -25 -57 -29q-37 -2 -47 -8l-51 641q-178 -125 -187 -109zM739 1518h80q12 -20 111 -256q82 -195 164 -250q63 43 147 254q104 260 123 288q23 -10 66 -53 q-11 -643 73 -958h-90q-66 164 -94 469q-59 -203 -182 -287q-55 0 -115 49q-12 10 -98 98v-305q-18 -18 -62 -18q-41 0 -59 18q-31 14 -37 281q-10 461 -27 670z" />
<glyph unicode="&#xf5;" horiz-adv-x="10" d="M-23 -170h3644v-397h-3644v397z" />
<glyph unicode="&#xf6;" horiz-adv-x="813" d="M14 199q0 498 291 993q311 532 787 735q-25 -33 -91 -115q-539 -692 -538 -1323q0 -446 276 -659h2976v-397h-3158q-279 39 -420 268q-123 197 -123 498z" />
<glyph unicode="&#xf7;" />
<glyph unicode="&#xf8;" horiz-adv-x="731" d="M123 815q18 270 67 485q88 367 240 367q72 0 146.5 -128t89.5 -286q8 -74 2 -305q-8 -315 -52 -538q-78 -406 -247 -408q-100 -2 -168 135q-109 219 -78 678zM297 909q-20 -139 2 -245q12 -57 31 -78q16 -29 49 -29q60 -2 74 121q8 72 -15 207q-27 162 -78 162 q-43 0 -63 -138z" />
<glyph unicode="&#xf9;" horiz-adv-x="524" d="M41 797q0 801 262 1226q-6 -8 -6 -20q0 -16 20.5 -67.5t14.5 -67.5q-109 -326 -109 -887q0 -313 41 -594q55 -379 174 -557h1444v-397h-1524q-168 168 -254 649q-63 356 -63 715z" />
<glyph unicode="&#xfa;" horiz-adv-x="806" d="M-1944 -170h2089q203 229 203 619q0 676 -584 1304q-16 18 -16 62v69q-4 27 -20 43q481 -236 786 -780q279 -498 279 -989q0 -283 -105 -469q-127 -225 -385 -256h-2247v397z" />
<glyph unicode="&#xfb;" horiz-adv-x="10" d="M-23 -170h1889v-397h-1889v397z" />
<glyph unicode="&#xfc;" horiz-adv-x="724" d="M-1208 -170h1208q156 96 264 432q88 274 78 395l84 129q33 -90 33 -233q0 -231 -103 -604q-119 -438 -262 -516h-1302v397z" />
<glyph unicode="&#xff;" horiz-adv-x="2162" d="M106 473q0 993 353 1655h1364q276 -873 276 -1727q0 -492 -104 -901h-1721q-92 59 -137 463q-31 266 -31 510zM293 561q0 -399 98 -706h1514q18 231 18 456q0 309 -35 598q-72 586 -211 863h-1222q-162 -1096 -162 -1211zM739 365q0 219 86 651q111 557 258 643 q106 0 158 -227q27 -141 82 -426q96 -480 125 -707q23 -176 22 -149q0 -47 -88 -48q-74 0 -102 54q-18 37 -27 127q-10 117 -22 161q-147 -57 -172 -67q-135 -59 -148 -88q2 -16 9 -99q4 -55 -9 -116h-135q-37 158 -37 291zM958 723q172 69 172 92q0 43 -20 156 q-25 131 -47 168q-31 -33 -70 -199q-35 -154 -35 -217z" />
<glyph unicode="&#x152;" />
<glyph unicode="&#x153;" />
<glyph unicode="&#x178;" horiz-adv-x="2070" d="M106 473q0 993 353 1655h1364q276 -873 276 -1727q0 -492 -104 -901h-1721q-92 59 -137 463q-31 266 -31 510zM293 561q0 -399 98 -706h1514q18 231 18 456q0 309 -35 598q-72 586 -211 863h-1222q-162 -1096 -162 -1211zM696 1106q8 170 215 367q197 186 328 186 q180 0 180 -172q0 -133 -55 -285l-59 -162q0 -10 59 -41q178 -93 178 -294q0 -270 -131 -449q-147 -199 -407 -199q-129 0 -178.5 53.5t-49.5 182.5t76 190q23 18 27 19q0 -80 -8.5 97t-8.5 239q0 59 2 114q-68 -18 -92 -18q-84 0 -76 172zM995 1149l27 -143 q188 117 256 342q6 20 -14.5 33.5t-42.5 13.5q-12 0 -23 -4q-74 -31 -133 -97q-70 -76 -70 -145zM1040 627q0 -307 29 -334q174 -16 270 149q60 102 62 174q2 53 -56.5 103.5t-111.5 50.5q-145 0 -193 -143z" />
<glyph unicode="&#x2c6;" horiz-adv-x="1169" d="M-86 483q0 25 27.5 81.5t48.5 76.5q6 2 65 4q57 2 68 -2q26 -4 22 -31q0 -33 -26.5 -88t-52.5 -67q-23 -4 -115 -4q-37 0 -37 30zM37 -61q0 47 26 137q31 104 269 557q-47 6 -80 22q-100 49 -152 291q-12 57 -12 117q0 283 281 432q88 47 133 47q33 0 80 -57.5t53 -91.5 q10 -59 10 -164q-113 0 -217 -60q-127 -70 -121 -174q2 -25 60 -28q2 0 145 2q420 766 518 766q90 0 90 -72q0 -17 -6 -33q-217 -311 -418 -674q313 -51 367 -381q18 -115 18 -198q0 -158 -84 -217q-70 -47 -237 -47h-301q-16 45 -17 202q0 92 17 129q23 49 119 95 q23 0 58.5 -47.5t96.5 -47.5q150 0 158 41q-2 45 -90 88q-115 55 -285 50l-260 -506q-109 -207 -166 -238q-53 0 -53 60zM881 999q-2 4 0 15q2 12 2 16q0 25 27.5 81t47.5 77q10 6 66 6q53 0 68 -2q26 -6 22 -33q0 -33 -26.5 -88t-53.5 -65q-61 -10 -143 -11q-8 0 -10 4z " />
<glyph unicode="&#x2dc;" />
<glyph unicode="&#x2000;" horiz-adv-x="1132" />
<glyph unicode="&#x2001;" horiz-adv-x="2264" />
<glyph unicode="&#x2002;" horiz-adv-x="1132" />
<glyph unicode="&#x2003;" horiz-adv-x="2264" />
<glyph unicode="&#x2004;" horiz-adv-x="754" />
<glyph unicode="&#x2005;" horiz-adv-x="566" />
<glyph unicode="&#x2006;" horiz-adv-x="377" />
<glyph unicode="&#x2007;" horiz-adv-x="377" />
<glyph unicode="&#x2008;" horiz-adv-x="283" />
<glyph unicode="&#x2009;" horiz-adv-x="452" />
<glyph unicode="&#x200a;" horiz-adv-x="125" />
<glyph unicode="&#x2010;" horiz-adv-x="872" d="M70 551q0 27 35.5 95.5t58.5 82.5q6 8 51 4q72 -4 152 0q84 6 362 27q16 2 29 2q45 0 45 -35q0 -27 -36 -108.5t-54 -88.5l-299 -30q-41 -4 -148 -6q-121 -2 -149 6q-47 12 -47 51z" />
<glyph unicode="&#x2011;" horiz-adv-x="872" d="M70 551q0 27 35.5 95.5t58.5 82.5q6 8 51 4q72 -4 152 0q84 6 362 27q16 2 29 2q45 0 45 -35q0 -27 -36 -108.5t-54 -88.5l-299 -30q-41 -4 -148 -6q-121 -2 -149 6q-47 12 -47 51z" />
<glyph unicode="&#x2012;" horiz-adv-x="872" d="M70 551q0 27 35.5 95.5t58.5 82.5q6 8 51 4q72 -4 152 0q84 6 362 27q16 2 29 2q45 0 45 -35q0 -27 -36 -108.5t-54 -88.5l-299 -30q-41 -4 -148 -6q-121 -2 -149 6q-47 12 -47 51z" />
<glyph unicode="&#x2013;" />
<glyph unicode="&#x2014;" />
<glyph unicode="&#x2018;" />
<glyph unicode="&#x2019;" />
<glyph unicode="&#x201a;" horiz-adv-x="2162" d="M106 473q0 993 353 1655h1364q276 -873 276 -1727q0 -492 -104 -901h-1721q-92 59 -137 463q-31 266 -31 510zM293 561q0 -399 98 -706h1514q18 231 18 456q0 309 -35 598q-72 586 -211 863h-1222q-162 -1096 -162 -1211zM705 1583q96 4 141 0q33 -74 47 -420 q14 -313 37 -321q172 299 217 385q133 256 133 356q0 29 47 29q51 0 135 -29q0 -233 -127 -524q-113 -258 -280 -467q-14 -43 104 -96q59 -27 232 -84q131 -43 137 -62v-334q-78 10 -234 64q-199 68 -301 90q27 -78 27 -107q0 -12 -6 -12h-168q-90 379 -141 1532z" />
<glyph unicode="&#x201c;" />
<glyph unicode="&#x201d;" />
<glyph unicode="&#x201e;" horiz-adv-x="2162" d="M106 473q0 993 353 1655h1364q276 -873 276 -1727q0 -492 -104 -901h-1721q-92 59 -137 463q-31 266 -31 510zM293 561q0 -399 98 -706h1514q18 231 18 456q0 309 -35 598q-72 586 -211 863h-1222q-162 -1096 -162 -1211zM670 754q-6 154 10 446q20 356 53 432 q92 0 117 -28q6 -59 6 -131q0 -115 -11 -344.5t-11 -344.5q0 -127 4 -260q213 -20 352 -20q41 0 422 20l12 -420q-223 -23 -420 -22q-205 0 -450 22q-16 61 -45 187q-25 119 -39 463z" />
<glyph unicode="&#x2022;" horiz-adv-x="860" d="M-635 -135h1094q27 23 82 72q23 20 22 94q0 94 -124 246.5t-128 248.5q-4 78 77 158t81 109q0 16 -84 131q-123 170 -123 309q0 80 37 156q72 147 72 256q0 92 -60 129h-893v419h1088q104 -37 160 -168q45 -106 45 -235q0 -150 -58 -268q-37 -78 -37 -156 q0 -141 121 -307q84 -115 84 -133q0 -29 -81 -110t-76 -157q6 -102 73 -196q41 -53 121 -164q66 -96 66 -211q0 -166 -90 -377q-106 -248 -244 -268h-1225v422z" />
<glyph unicode="&#x2026;" horiz-adv-x="2263" d="M12 225q0 27 29 29q18 2 121.5 -9.5t120.5 -17.5q18 2 31.5 82t27.5 80q23 2 47 -29q37 -45 43 -49q27 -18 94 -78q14 12 60.5 67.5t52.5 70.5q23 -4 49.5 -45t30.5 -41q2 0 46 32.5t50 32.5q12 0 96 -66.5t86 -66.5t64.5 68.5t73.5 70.5q6 0 18 -18q18 -29 47 -66 q27 23 39 82q10 47 27 49q16 2 116 -77l103 -82l153 194q31 2 86 -209q47 51 75 94.5t30 43.5q8 2 113 -138q61 27 88 99q25 61 20 63q14 -14 16 -35q-2 27 -2 -90q16 0 70 -8q47 -6 70 -2q20 -12 20 -35q0 -10 -53 -74q-47 -55 -66 -73q53 -66 115 -94q43 -21 43 -41 q0 -4 -18 -29q-80 -6 -236 -100q4 -4 64 -31q53 -23 63 -45q23 -43 23 -74v-41q-4 -8 -35 -10q-61 -4 -72 -12q-2 -2 -2 -27v-76q-4 -33 -20 -33q-4 0 -57.5 54.5t-59.5 54.5q49 0 -55.5 -54.5t-133.5 -54.5q-47 0 -122.5 51.5t-69.5 55.5q-8 0 -42 -60.5t-46 -58.5 q-57 6 -108.5 52t-55.5 46q-2 0 -56.5 -45t-70.5 -45q-6 4 -20 4q-10 35 -19 88q-4 23 -18 23q-45 0 -144 -55q-80 -45 -123 -47q-41 -2 -69 32q-8 10 -43 72q-51 -31 -78 -61q-10 -10 -29.5 -51.5t-23.5 -41.5q-14 0 -54 54.5t-45 54.5q-88 -51 -217 -102q-20 -2 -20 16 q8 16 51 104q-121 33 -244 68q-14 31 -14 35q0 8 80 55q88 51 100 64q-14 16 -80 43q-51 20 -51 53q0 20 37 35q47 18 59 30q-43 43 -100 60q-41 12 -41 24q0 27 74 70q37 23 80 43q-188 68 -189 98zM111 213q16 -14 92 -43q57 -23 57 -51q0 -23 -37 -35q-59 -18 -104 -55 q31 -10 63 -35q43 -31 43 -55q0 -53 -73 -78q123 -57 122 -101q0 -29 -69 -59q-84 -37 -94 -47q51 -16 143 -49q35 -8 70 -15q45 -14 45 -43q0 -10 -52 -61q88 39 189 102q14 0 35.5 -47t33.5 -51q12 35 65.5 84t86.5 53q12 2 38 -53t60 -53q39 2 139.5 50t143.5 50 q33 2 39 -41q8 -61 12 -67q59 45 135 92q-37 0 40 -51.5t91 -51.5q18 0 59.5 61.5t51.5 61.5q-49 0 52.5 -60.5t125.5 -58.5q43 2 118 56.5t95 60.5q14 -12 88 -90q4 14 8 90q2 55 19 47l20 -12q20 -10 39 -10q14 0 29 10q-8 27 -36 58.5t-52 37.5q-106 23 -107 39 q0 25 39 49q94 61 209 90q-152 131 -141 154q41 37 104 113q-31 25 -86 14q-31 -6 -32 20v46q-23 -49 -82 -127q-41 63 -113 147q-8 -16 -64.5 -85t-62.5 -69l-64 215q-55 -57 -71 -77q-47 -57 -78 -111q-66 63 -107 98q-80 70 -106 74q-8 -27 -33 -78q-31 -63 -43 -63 q-4 0 -32.5 41t-38.5 49q-51 -47 -107 -113q-35 -41 -43 -41q-8 -2 -84 73t-78 75q-14 0 -53 -31q-45 -35 -51 -39q-14 20 -64 94q-10 -33 -127 -143q-63 57 -161 139q-18 -39 -35 -112q-8 -39 -23 -33q-70 31 -196 51zM307 -291q0 23 47 33q74 16 125 27q6 33 15 184 q2 6 2 27q-61 -66 -68 -66q-18 0 -18 33q0 8 48 62t54 65q27 0 25 -27l-19 -272q49 8 111 12q16 0 59 2q33 2 60 0q33 -2 86 -12q0 -23 -41 -25q-147 -4 -211 -8q-152 -10 -222 -53q-18 -14 -24 -15q-29 0 -29 33zM567 53q37 88 58 88q18 0 14 -26q-8 -16 -41 -66 q0 -2 41 -20q35 -14 31 -43q-4 -31 -24.5 -58.5t-49.5 -27.5q-23 0 -23 32q0 16 19 23q27 6 43 25q-2 12 -66 28q-10 25 -2 45zM657 39q0 35 76 72q68 35 107 34q20 0 20 -14q0 -6 -2 -12q-55 -18 -127 -58q-2 -31 -14 -122q-8 -10 -19 -11q-4 0 -10 4q0 78 4 107 q-10 -8 -14 -16q-20 -2 -21 16zM897 -168q0 111 94 254q18 29 64.5 58.5t79.5 29.5q35 0 34 -61q0 -18 -8 -54t-8 -55q-6 -8 -18 -8q-23 0 -23 27q0 12 7 33.5t7 31.5t-16 10q-23 0 -58.5 -31.5t-47.5 -56.5q-59 -113 -60 -170q0 -78 72 -100q33 -10 123 -10q18 0 315 14 q-18 20 -41 41l-2 -8q-2 -6 -8 -10q-10 0 -21.5 11t-11.5 21l6 72q4 72 2 76q0 6 -6 15t-6 15q0 43 96 43q59 0 60 -57q0 -25 -42 -70t-42 -61t88 -86h166q-4 12 -4 21q0 18 22 28q41 20 53 31q-39 0 -96 6q-8 2 -10 16q-29 -94 -90 -94q-45 0 -45 105q0 47 30 135 q10 2 17 0q10 -4 10 -33q0 -8 -10 -42t-10 -56q0 -47 8 -49q29 0 45 41q12 31 12 63q0 8 -8 18.5t-8 20.5q2 6 12 51q35 -29 39 -106q6 23 31.5 76t40.5 61q6 4 12 4q12 -2 10 -39q-20 -35 -47 -110q131 -10 119 -64q-12 -51 -84 -84q86 0 149 -14q74 -6 88 -51l-4 -29 q-10 -8 -16 -8q-4 0 -9 7t-10 7q-41 47 -210 49q-49 0 -201 -2l-170 -4q-41 0 -113 -6q-80 -8 -115 -8l-83 -2q-59 -2 -104.5 43t-45.5 104zM1145 -209q0 14 14 119l15 104q18 10 24 0q8 -14 6 -43q-6 -63 15 -61q4 61 6 76q6 41 20 71q6 6 12 6q4 0 9.5 -6t5.5 -26 q-27 -113 -27 -252q-8 -6 -16 -6t-15 6v80q-10 -6 -26 -9q0 -100 -12 -100q-31 0 -31 41zM1257 -154q0 41 15 105q20 80 47 80q23 0 37 -64q12 -49 12 -84q0 -39 -20 -76q-25 -43 -60 -43q-31 0 -31 82zM1286 -154q2 -12 8 -30q39 19 39 78t-16 77q-31 -31 -31 -125z M1411 -35q0 -4 2 -28v-48q5 5 68 64q0 12 -2 18q-8 8 -33 4q-18 -4 -35 -10z" />
<glyph unicode="&#x202f;" horiz-adv-x="452" />
<glyph unicode="&#x2039;" horiz-adv-x="2117" d="M106 473q0 993 353 1655h1364q276 -873 276 -1727q0 -492 -104 -901h-1721q-92 59 -137 463q-31 266 -31 510zM293 561q0 -399 98 -706h1514q18 231 18 456q0 309 -35 598q-72 586 -211 863h-1222q-162 -1096 -162 -1211zM682 1042q-10 184 248 394q223 180 379 200 q74 10 73 -98q0 -6 -10 -113q-10 -86 -24 -114q-23 -39 -91 -68q-190 -80 -327 -231q-76 -84 -76 -127q0 -31 41 -31q369 154 389 154q61 0 62 -119q0 -43 -1.5 -67.5t-1.5 -8.5q2 -162 -102 -221l-344 -143q0 -57 33 -72q242 16 391 16q141 0 149 -16q8 -8 9 -43 q0 -41 -13 -123q-4 -27 -12 -84q-8 -92 -104 -92q-10 0 -31 2t-31 2h-495q-27 51 -66 446q-33 338 -45 557z" />
<glyph unicode="&#x203a;" horiz-adv-x="2117" d="M106 473q0 993 353 1655h1364q276 -873 276 -1727q0 -492 -104 -901h-1721q-92 59 -137 463q-31 266 -31 510zM293 561q0 -399 98 -706h1514q18 231 18 456q0 309 -35 598q-72 586 -211 863h-1222q-162 -1096 -162 -1211zM813 1198q-2 109 21 174q43 53 231 147.5 t254 94.5q59 0 76 -86l8 -96q8 -119 -17.5 -164t-134.5 -97q-158 -76 -266 -153l8 -264q57 -8 201 51q154 63 180 63q74 0 76 -166q2 -141 -18 -165q-25 -16 -205 -68q-166 -47 -191 -76q2 -82 2 -145q0 -229 -28 -230q-88 0 -109 88q-2 6 -37 340q-2 27 -24 330 q-25 350 -27 422z" />
<glyph unicode="&#x205f;" horiz-adv-x="566" />
<glyph unicode="&#x2122;" horiz-adv-x="1521" d="M47 885q2 43 23 321q10 152 41 285q39 176 90 205q18 0 18 -37q0 -25 -24 -191q-29 -195 -37 -364q-2 -43 -2 -66h1317l79 -526h-1398q12 -225 57 -395l37 -135q-2 -29 -27 -80q-27 -57 -51 -58q-86 43 -111 668q-12 307 -12 373z" />
<glyph unicode="&#xe000;" horiz-adv-x="1341" d="M0 0v1341h1341v-1341h-1341z" />
<glyph unicode="&#xfb01;" horiz-adv-x="2117" d="M106 473q0 993 353 1655h1364q276 -873 276 -1727q0 -492 -104 -901h-1721q-92 59 -137 463q-31 266 -31 510zM293 561q0 -399 98 -706h1116q-4 338 -18 362q-10 0 -70 -43q-168 -123 -327 -123q-424 0 -437 737q-4 199 76 465q121 408 369 408q162 0 229 -115 q37 -63 78 -260q29 -139 29 -239q0 -80 -25 -82q-96 -6 -141 73q-18 51 -58 152q-33 84 -106 84q-121 0 -211 -240q-74 -195 -72 -309q2 -127 68 -199q70 -78 194 -77q133 0 191 55q20 18 20 20h-278l-6 334q82 63 323 64q203 0 269 -285q25 -104 28 -381q4 -219 0 -401h273 q18 231 18 456q0 309 -35 598q-72 586 -211 863h-1222q-162 -1096 -162 -1211z" />
<glyph unicode="&#xfb02;" horiz-adv-x="2162" d="M106 473q0 993 353 1655h1364q276 -873 276 -1727q0 -492 -104 -901h-1721q-92 59 -137 463q-31 266 -31 510zM293 561q0 -399 98 -706h1514q18 231 18 456q0 309 -35 598q-72 586 -211 863h-1222q-162 -1096 -162 -1211zM713 1544q29 37 104 37q39 0 68 -10 q16 -139 18 -400q0 -223 17 -260q41 0 266 50q4 221 4 714q29 14 63 15q76 0 103 -33q14 -63 18 -279q6 -264 15 -383q24 -346 104 -934q-25 -29 -86 -28q-41 0 -57 12q-43 66 -82 334q-37 260 -15.5 260t-28.5 -12.5t-137.5 -25.5t-130.5 -15q12 -154 13 -269 q0 -80 -4 -139l-7 -90q-35 -20 -88 -20t-75 20q-23 33 -25 223q2 82 0 244q-6 158 -57 989z" />
</font>
</defs>
</svg>
